<?xml version="1.0" standalone="no"?>
<!DOCTYPE svg PUBLIC "-//W3C//DTD SVG 1.1//EN" "http://www.w3.org/Graphics/SVG/1.1/DTD/svg11.dtd" >
<svg xmlns="http://www.w3.org/2000/svg" xmlns:xlink="http://www.w3.org/1999/xlink" version="1.1">
<metadata>
Created by FontForge 20201107 at Fri Nov 29 16:15:20 2019
 By Unknown
QDFonts
</metadata>
<defs>
<font id="QDBetterComicSans" horiz-adv-x="508" >
  <font-face 
    font-family="QDBetterComicSans"
    font-weight="500"
    font-stretch="normal"
    units-per-em="1000"
    panose-1="2 0 6 3 0 0 0 0 0 0"
    ascent="800"
    descent="-200"
    x-height="520"
    cap-height="739"
    bbox="-177.069 -272.03 1020.28 874.917"
    underline-thickness="50"
    underline-position="-150"
    unicode-range="U+0020-F8FE"
  />
<missing-glyph horiz-adv-x="364" 
d="M66 33h199v600h-199v-600zM33 0v666h265v-666h-265z" />
    <glyph glyph-name=".notdef" horiz-adv-x="364" 
d="M66 33h199v600h-199v-600zM33 0v666h265v-666h-265z" />
    <glyph glyph-name=".null" horiz-adv-x="0" 
 />
    <glyph glyph-name="nonmarkingreturn" horiz-adv-x="333" 
 />
    <glyph glyph-name="space" unicode=" " horiz-adv-x="219" 
 />
    <glyph glyph-name="exclam" unicode="!" horiz-adv-x="271" 
d="M73 119q25 14 50.5 10.5t43.5 -23.5q23 -25 28 -68q4 -39 -8 -71q-8 -21 -22 -35q-19 -18 -45 -22q-49 -6 -79 21t-30 73q1 33 17 64.5t42 48.5l1.5 1.5t1.5 0.5zM270 723q-2 -5 -3 -11q-4 -20 -5 -65q-1 -44 -4 -68q-4 -22 -8 -45q-10 -61 -35 -170q-23 -100 -31 -143
q-4 -20 -21 -31.5t-37 -7.5t-31.5 21t-7.5 37q8 45 31 146q25 107 35 165q4 22 7 42q2 18 3 56q1 54 7 83q2 9 5 18q5 19 23 29t37.5 4.5t29.5 -23t5 -37.5z" />
    <glyph glyph-name="quotedbl" unicode="&#x22;" horiz-adv-x="326" 
d="M138 734q6 -44 4 -110v-30q-1 -38 -1 -56q0 -20 -14.5 -34.5t-35 -14.5t-35 14.5t-14.5 34.5t1 59q0 19 1 29q1 59 -4 95q-2 21 10.5 37t33 18.5t36.5 -10t18 -32.5zM325 715q-8 -40 -10 -104v-66v-29q0 -21 -14.5 -35.5t-35 -14.5t-35 14.5t-14.5 35.5v29v68
q2 73 13 123q4 20 21.5 31t37.5 7t31 -21.5t6 -37.5z" />
    <glyph glyph-name="numbersign" unicode="#" horiz-adv-x="791" 
d="M485 254q10 24 27 65q29 69 39 96q9 24 18 50q-31 -1 -100 -5q-15 -1 -23 -2q-82 -4 -131 -5q-27 -95 -49 -187l28 -2q60 -4 109 -6q44 -3 82 -4zM752 687q-17 -36 -33 -83q-7 -18 -14 -39q21 -1 40 -2q21 -2 34.5 -17.5t11.5 -36t-17.5 -34t-35.5 -11.5q-31 2 -64 3
q-16 -51 -30 -88q-12 -28 -41 -98q-7 -17 -12 -30h4q85 0 104 6q20 7 38.5 -2t25 -28.5t-2.5 -38t-29 -24.5q-34 -12 -136 -12q-20 0 -42 1q-15 -45 -24 -84q-5 -20 -22.5 -30.5t-37.5 -6t-30.5 22t-6.5 37.5q7 30 18 64q-25 1 -53 3q-49 2 -110 6q-20 1 -43 3
q-17 -84 -30 -167q-3 -20 -19.5 -32t-36.5 -9t-32.5 19.5t-8.5 36.5q11 79 28 158q-51 4 -64 4q-20 0 -34.5 15t-14 35.5t15 34.5t35.5 14q17 0 79 -4q1 -1 4 -1q21 90 47 182q-59 3 -112 12q-20 4 -32 20.5t-8.5 37t20.5 32t37 8.5q57 -10 124 -12q29 94 64 192
q6 19 24.5 28t38 2t28.5 -25.5t2 -37.5q-29 -81 -53 -158q36 1 94 4q8 1 23 2q93 5 139 6q13 44 23 72q19 52 37 92q9 18 28 25.5t38 -1.5t26 -28t-2 -38z" />
    <glyph glyph-name="dollar" unicode="$" horiz-adv-x="622" 
d="M302 419q4 39 5 62q2 45 -5 134q-6 -1 -12 -3q-60 -14 -90 -42q-22 -20 -17 -42q10 -39 59 -74q25 -18 60 -35zM385 280q-2 -15 -3 -20q-7 -53 -11 -90q-7 -62 -10 -110q62 -5 104.5 5t56.5 32q1 2 1 5q1 8 -1 21q0 9 -2 23q0 1 -1 4v4q-1 5 -1 8q-1 10 -2 16q-1 10 0 27
v1v17v3q-1 1 -4 2q-10 7 -29 16q-21 9 -69 25q-20 7 -29 11zM399 820q-5 -41 -4 -92v-7q11 -1 21 -2q87 -9 130 -55q14 -15 13.5 -35.5t-15.5 -34.5t-35.5 -13.5t-34.5 15.5q-18 19 -69 25h-4q7 -93 5 -143q-1 -34 -8 -97v-1q12 -4 49 -17q51 -18 75 -28q28 -13 46 -24
q27 -19 37 -42q8 -17 10 -38q1 -10 0 -29v-17q0 -5 3 -26q2 -16 3 -28q2 -21 0 -38q-2 -26 -13 -44q-36 -64 -127 -82q-53 -11 -122 -6q2 -53 13 -79q7 -19 -1 -38t-27 -26.5t-38 1t-26 27.5q-19 47 -20 130q-66 14 -123.5 37t-90.5 49q-16 12 -19 32.5t9.5 36.5t33 19
t36.5 -10q29 -22 91 -44q32 -11 66 -19q3 46 10 104q4 38 11 91q1 9 6 44q-64 28 -106 58q-78 56 -97 130q-19 79 47 139q48 45 132 65q15 4 30 7v11q-1 58 4 106q3 20 19 32.5t36.5 10t33 -18.5t10.5 -36z" />
    <glyph glyph-name="percent" unicode="%" horiz-adv-x="773" 
d="M281 684l-8 4q-9 0 -19 1q-14 1 -39 7q-16 4 -22 5q-12 1 -18 -1q-17 -7 -24 -29q-9 -26 0 -52q6 -19 20 -23q8 -3 20 0q19 3 42 18q37 22 44 38q1 1 1 2t1 2q1 4 2 9q1 9 0 18v1zM331 771q19 -9 32 -28q14 -21 17 -50q5 -46 -13 -83q-14 -29 -39 -51q-15 -12 -43 -29
q-79 -49 -144 -29q-61 19 -84 86q-20 57 0 115q22 67 83 90q30 12 67 7q11 -2 31 -7q30 -7 40 -4q32 10 53 -17zM627 244q-21 -3 -38 -16q-26 -20 -33 -55q-6 -32 10 -55q19 -26 65 -30q22 -1 32 13q13 21 12 58q-2 39 -19 66q-6 11 -13 15q-3 3 -6 3q-5 0 -10 1zM709 314
q18 -15 32 -37q30 -49 33 -113q3 -70 -29 -118q-42 -62 -121 -56q-92 7 -138 70q-41 57 -27 132q14 71 69 114q63 49 146 34q24 -4 35 -26zM601 713l4 2q-5 -7 -13 -21q-16 -28 -42 -79q-47 -96 -112 -237q-61 -136 -105 -240q-21 -52 -33 -84q-6 -15 -9 -25h-1
q0 -20 -14.5 -34.5t-35 -14.5t-35 14.5t-14.5 34.5q0 17 16 59q12 34 35 88q44 105 106 243q65 143 114 240q26 53 44 84q9 17 17 28q12 18 23 25q18 12 38 7.5t31 -21.5t7 -37t-21 -32z" />
    <glyph glyph-name="ampersand" unicode="&#x26;" horiz-adv-x="637" 
d="M221 353q-36 -33 -58 -63q-45 -62 -26 -115q7 -19 36 -36.5t71 -26.5q78 -16 127 4q-59 73 -109 159q-23 40 -41 78zM413 659l-1 1q-13 6 -36 5.5t-42 -6.5q-38 -12 -60 -28q-12 -9 -16 -30q-6 -28 3 -71q2 -6 4 -14q0 1 1 1q20 16 26 20q30 23 47 37q46 38 62 61
q9 13 12 22v2zM570 -34q-37 0 -83 32q-23 17 -48 42h-2q-36 -25 -94.5 -31.5t-118.5 6.5q-61 13 -106 41q-56 35 -74 86q-20 55 -7 111q11 47 46 95q28 38 73 80q12 11 25 22q-10 31 -16 60q-14 62 -5 109q12 60 56 92q34 25 87 42q35 12 77 11.5t73 -14.5q49 -23 58 -71
q8 -46 -29 -100q-23 -35 -80 -81q-19 -16 -50 -39l-26 -20q-16 -12 -26 -20v-1q20 -45 48 -93q44 -77 97 -143q17 23 33 51q34 59 63 148q6 19 24 28.5t37.5 3t29 -24.5t3.5 -38q-32 -98 -71 -166q-25 -43 -52 -77q18 -17 33 -28q12 -9 21 -13l4 -1q20 0 34.5 -14.5
t14.5 -35t-14.5 -35t-34.5 -14.5z" />
    <glyph glyph-name="quotesingle" unicode="'" horiz-adv-x="251" 
d="M249 753q-11 -31 -12 -79.5t9 -74.5q8 -19 -0.5 -37.5t-27.5 -26t-38 1t-26 27.5q-16 43 -15.5 108.5t16.5 112.5q7 20 25.5 29t37.5 2t28 -25.5t3 -37.5z" />
    <glyph glyph-name="parenleft" unicode="(" horiz-adv-x="354" 
d="M335 721q-81 -97 -131 -216t-56 -235q-8 -129 39 -234.5t147 -177.5q17 -12 20 -32.5t-9 -37t-32 -19.5t-37 9q-125 90 -183 226q-53 124 -44 271q7 133 63 267t147 243q14 16 34.5 17.5t36 -11.5t17 -33.5t-11.5 -36.5z" />
    <glyph glyph-name="parenright" unicode=")" horiz-adv-x="390" 
d="M115 786q66 -51 125.5 -146t99.5 -211q41 -121 49 -228.5t-22 -188.5q-23 -60 -92 -116q-41 -34 -112 -75q-18 -10 -37.5 -5t-30 22.5t-5.5 37.5t23 30q65 38 99 66q49 40 63 76q23 59 15 151.5t-44 197.5q-35 102 -86.5 186t-104.5 125q-17 12 -19.5 32.5t10 36.5t33 19
t36.5 -10z" />
    <glyph glyph-name="asterisk" unicode="*" horiz-adv-x="449" 
d="M396 574q-36 3 -76 -18l3 -3q1 -1 14.5 -11.5t16.5 -13.5q41 -33 75 -59q17 -12 20 -32.5t-9 -37t-32.5 -19.5t-36.5 9q-37 27 -79 62q-4 3 -17.5 14t-14.5 12q-12 10 -22 18q-16 -15 -36 -36q-2 -2 -21 -21.5t-24 -24.5q-15 -15 -35.5 -15t-35 14.5t-14.5 35t15 35.5
q4 4 23 23.5t22 22.5l22 22q-11 6 -23 12q-35 17 -81 34q-19 7 -28 25.5t-2 37.5t25.5 28t38.5 2q50 -18 90 -37l14 -8q1 8 2 24q1 37 1 55q0 27 -4 49q-4 20 7.5 37t31.5 21t37 -7.5t21 -31.5q6 -31 6 -67q0 -21 -2 -61v-14q57 27 114 23q20 -1 34 -16.5t12.5 -35.5
t-16.5 -34t-36 -13z" />
    <glyph glyph-name="plus" unicode="+" horiz-adv-x="497" 
d="M279 511v-18v-128q27 -3 77 -10q64 -8 95 -11h2q20 -2 33 -18t11 -36.5t-18 -33.5t-36 -11q-1 0 -1 1q-33 3 -98 11q-38 5 -61 7q4 -64 12 -120q3 -20 -9.5 -36.5t-32.5 -19.5t-36.5 9.5t-19.5 32.5q-9 66 -13 143q-65 3 -119 -4q-20 -3 -36.5 9.5t-19 32.5t10 36.5
t32.5 19.5q59 8 128 5v121v18q0 20 14.5 34.5t35 14.5t35 -14.5t14.5 -34.5z" />
    <glyph glyph-name="comma" unicode="," horiz-adv-x="199" 
d="M192 25q-18 -29 -35 -90q-1 -5 -3 -12q0 -2 -1 -5q-1 -2 -2 -6q-2 -9 -4 -14q-5 -20 -23 -30t-37.5 -4.5t-29.5 23.5t-5 38q1 5 4 13l1 5q1 4 2 6q2 7 3 13q21 73 46 115q11 17 30.5 22t37 -5.5t22.5 -30.5t-6 -38z" />
    <glyph glyph-name="hyphen" unicode="-" horiz-adv-x="369" 
d="M92 307q31 0 77 2q11 1 35 2q77 4 116 4q21 0 35.5 -14.5t14.5 -35t-14.5 -35t-35.5 -14.5q-37 0 -111 -4q-24 -1 -36 -2q-47 -2 -81 -2q-20 0 -34.5 14.5t-14.5 35t14.5 35t34.5 14.5z" />
    <glyph glyph-name="period" unicode="." horiz-adv-x="200" 
d="M150 103q6 -2 12 -5q21 -13 31 -34.5t7 -45.5q-5 -35 -33 -59q-14 -14 -31 -19q-28 -9 -52 5q-23 14 -30 43q-6 18 -3.5 43.5t13.5 41.5q1 3 8 11.5t7 9.5q13 16 33 19.5t37 -8.5q1 -1 1 -2z" />
    <glyph glyph-name="slash" unicode="/" horiz-adv-x="515" 
d="M504 714q-100 -120 -200 -316t-138 -348q-5 -20 -22.5 -30.5t-37.5 -5.5t-30.5 22.5t-5.5 37.5q41 163 146 369t212 335q14 16 34.5 17.5t36 -11.5t17 -33.5t-11.5 -36.5z" />
    <glyph glyph-name="zero" unicode="0" horiz-adv-x="579" 
d="M292 667q-13 -2 -24 -6q-58 -20 -97 -104q-42 -86 -43 -196q-2 -112 39 -190q42 -79 118 -95q30 -6 57 9q30 16 58 55q58 83 75 214t-21 215q-37 79 -117 75q-30 -2 -45 23zM433 725q73 -32 111 -115q50 -110 30 -269q-21 -155 -93 -258q-41 -58 -92 -85
q-59 -32 -124 -19q-122 25 -185 146q-53 100 -51 237q2 131 52 238q58 121 155 155q29 10 63 11q22 2 56 -1h7q17 -1 25 -1q17 -1 29.5 -12t16.5 -27z" />
    <glyph glyph-name="one" unicode="1" horiz-adv-x="433" 
d="M31 644q27 33 67 63q24 17 71 47h1l2 1q16 10 31 13q22 5 41 -3t31 -27q7 -11 10 -27q7 -31 0 -98q-1 -8 -3 -21q-6 -47 -6 -57q0 -86 -2 -249q-2 -135 -2 -200q38 -2 71 -6q27 -3 51 -9q20 -4 31.5 -21t7 -37t-21.5 -31.5t-37 -6.5q-21 4 -43 7q-36 4 -81 6q-28 1 -84 1
t-84 1q-20 1 -34 16t-13.5 35.5t15.5 34.5t36 13q26 -1 80 -1h7q0 65 2 200q2 162 2 247q0 12 2 33q1 8 3 18l2 19q1 12 2 20q2 13 3 24q-18 -11 -32 -22q-30 -23 -50 -46q-13 -16 -33.5 -18t-36 11t-17.5 33.5t11 36.5z" />
    <glyph glyph-name="two" unicode="2" horiz-adv-x="510" 
d="M29 614q26 62 97.5 112t150.5 62q93 14 156 -34q72 -54 78 -171q4 -102 -66 -193q-26 -34 -67 -71q-24 -23 -73 -62l-2 -2q-3 -2 -3 -3q-3 -2 -5 -4q-42 -34 -63 -54q-32 -28 -51 -53q-26 -31 -36 -62q21 1 51 4q13 1 29 2q76 7 84 7q17 1 53 4q6 1 9 1q44 4 71 4
q20 0 34.5 -14.5t14.5 -35t-14.5 -35t-34.5 -14.5q-23 0 -61 -4q-3 0 -10 -1q-38 -3 -58 -4q-2 0 -14.5 -1t-26.5 -2t-26 -2l-13 -2q-16 -1 -29 -2q-52 -4 -81 -4q-20 -1 -31 0q-10 1 -18 4q-10 3 -17 9q-20 16 -20 41q2 88 67 169q24 31 61 64q23 22 67 58q2 1 5 4l2 1l1 1
q2 2 3 2q46 38 68 59q35 31 56 59q48 62 45 127q-4 71 -38 97q-30 23 -82 15q-54 -8 -104.5 -42t-66.5 -72q-8 -19 -27 -27t-38 0t-26.5 27t-0.5 38z" />
    <glyph glyph-name="three" unicode="3" horiz-adv-x="541" 
d="M14 630q31 87 119 129q73 33 164 27q87 -7 150 -46q78 -49 78 -124q-1 -92 -49 -157q-24 -32 -57 -56q41 -22 69 -56q53 -65 54 -165q0 -115 -78 -180q-70 -57 -172 -50q-98 6 -176 71q-85 72 -108 187q-4 20 7.5 37t31.5 21t37 -7.5t21 -31.5q16 -81 75 -130
q52 -44 119 -49q62 -4 102 29q42 34 42 102q-1 66 -32 103q-23 30 -67 44q-28 9 -62 11q-18 2 -36 1q-2 -1 -5 -1q-5 0 -9 -1h-5q-22 -1 -36 13.5t-15.5 32t10 34t33.5 19.5h4q4 1 9 1h5q9 1 19 3q40 8 73 23q43 21 67 53q29 40 30 99q0 20 -32 40q-42 26 -104 31
q-65 5 -115 -18q-51 -24 -68 -72q-7 -20 -25.5 -28.5t-38 -2t-28 25.5t-1.5 38z" />
    <glyph glyph-name="four" unicode="4" horiz-adv-x="560" 
d="M357 315q0 8 1 17q5 117 4 197q-1 33 -2 65q-22 -26 -65 -74q-1 -1 -6 -7l-1 -1q-59 -66 -88 -102q-45 -55 -74 -104q13 0 30 1q16 1 39 3l19 2q12 1 19 2q20 2 32 2q15 0 44 -1h48zM352 745q4 11 12 19q2 2 4 5q11 17 31 21.5t37.5 -6.5t21.5 -31t-7 -37q0 -1 -1 -3
q9 -84 11 -183q1 -83 -4 -203l-1 -6q22 4 42 9q19 5 37 -5t23.5 -29.5t-5 -37.5t-29.5 -23q-34 -10 -72 -14q-7 -145 -7 -224q0 -20 -14.5 -34.5t-35 -14.5t-35 14.5t-14.5 34.5q0 80 6 219h-44q-29 1 -43 1q-9 0 -61 -5q-24 -2 -41 -4q-41 -2 -69 -1q-43 2 -67 17
q-13 7 -19 20q-4 9 -6 18q-1 8 1 17q2 8 5 17q4 10 12 24q2 3 3 5q5 10 11 20l5 8q33 56 83 119q31 38 92 106l4 4l4 4q52 58 78 90q30 37 52 69z" />
    <glyph glyph-name="five" unicode="5" horiz-adv-x="556" 
d="M155 651q-1 -7 -3 -15q-1 -10 -4 -30t-4 -26q-12 -45 -19 -81q19 12 28 17q81 51 155 55q73 4 131 -37q49 -34 79 -93t36 -131q7 -71 -10 -137.5t-56 -114.5q-46 -59 -115 -80.5t-154 -0.5q-2 0 -16 3t-17 4q-25 6 -44 12q-56 20 -89 55q-44 49 -46 122q0 21 14 35.5
t34.5 15t35.5 -13.5t15 -35q1 -36 20 -56q16 -18 49 -29q14 -5 33 -9q3 -1 17 -4t17 -4h1q110 -27 168 46q26 33 38 81t7 100q-5 51 -24.5 91.5t-49.5 61.5t-69 19q-48 -3 -108 -40q-13 -8 -56 -36h-1q-19 -13 -42 -28q-8 -5 -14 -9q-3 -2 -4 -3q-1 0 -1 -1q-18 -11 -38 -7
t-31 21q-12 18 -7 38q4 68 36 197h1v3q1 4 2 12q3 22 4 33q5 27 10 44q5 14 11 24q6 9 14 15q13 11 30 13q210 15 356 20q21 1 36 -13t15.5 -34.5t-13.5 -35.5t-34 -16q-133 -5 -324 -18z" />
    <glyph glyph-name="six" unicode="6" horiz-adv-x="534" 
d="M106 290q-5 -33 1 -56q15 -67 89 -116.5t143 -37.5q51 8 77 54q28 46 17 102q-11 60 -60 96q-60 44 -162 39q-44 -2 -67 -18q-22 -15 -31 -47q-2 -9 -7 -16zM432 659q-130 -5 -191 -53q-54 -43 -87 -143q23 5 51 7q138 7 227 -58q80 -59 99 -158q17 -92 -29 -170
q-50 -86 -147 -102q-70 -12 -144.5 16.5t-130 86.5t-70.5 127q-11 50 1 113q7 33 23 85q0 1 3.5 12t4.5 13q4 14 7 24q45 156 131 224t248 75q20 1 35.5 -13t16 -34t-13 -35.5t-34.5 -16.5z" />
    <glyph glyph-name="seven" unicode="7" horiz-adv-x="563" 
d="M64 724q11 -1 61 2q9 0 37 1.5t52 2.5l23 2q26 1 47 2q98 5 152 6q35 0 56 -1q13 0 21 -2q7 -1 12 -2q11 -3 19 -10q18 -13 20 -35q0 -8 -2 -17q-1 -5 -4 -10l-4 -8q-3 -5 -9 -13q-2 -2 -6 -7.5t-7.5 -10.5t-7.5 -10l-3 -5q-1 -1 -2 -3q-11 -14 -17 -23
q-215 -316 -314 -583q-7 -20 -25.5 -28.5t-38 -1t-28 26t-1.5 37.5q104 279 325 604q1 2 2 3q-50 -2 -133 -6q-21 -1 -47 -2q-91 -5 -112 -6q-54 -3 -69 -2q-20 1 -34 16t-13.5 35t15.5 34.5t35 13.5z" />
    <glyph glyph-name="eight" unicode="8" horiz-adv-x="613" 
d="M402 743q15 -3 26 -14q63 -64 74 -128q10 -62 -26 -121q-16 -26 -42 -51q49 -13 82 -32q106 -58 97 -178q-7 -105 -86 -177q-69 -63 -169.5 -78.5t-186.5 23.5q-96 44 -136 141q-29 70 23 138q32 41 107 92q12 8 29 19q-25 6 -45 14q-39 14 -65 34q-33 24 -49 59
q-36 82 -4 150q27 57 96 93q54 27 123 36.5t123 -1.5q18 -4 29 -19zM334 350q-18 -12 -43 -28l-8 -5q-8 -5 -16.5 -10.5t-11.5 -7.5q-21 -14 -35 -23q-62 -42 -83 -70q-18 -23 -11 -40q25 -61 86 -89q59 -27 130 -16t118 54q50 45 54 112q3 30 -8 49.5t-38 33.5
q-26 15 -69 26q-26 6 -65 14zM353 665q-37 8 -89.5 0.5t-91.5 -27.5t-51 -46q-13 -27 5 -67q10 -24 57 -41q36 -14 128 -30q11 8 21 16q42 34 60 62q16 27 12 52q-6 34 -47 76q-2 2 -3 5h-1z" />
    <glyph glyph-name="nine" unicode="9" horiz-adv-x="615" 
d="M478 335q7 15 12 30q27 68 26 119q0 42 -42 103q-20 29 -41.5 48t-37.5 23q-97 25 -163 -27q-28 -22 -45 -55t-20 -70q-5 -76 51 -120q71 -56 214 -34q28 5 46 -17zM106 83q93 -5 175 36q72 37 129 107q11 13 20 26q-174 -23 -273 56q-47 37 -69.5 90.5t-18.5 114.5
q3 57 30 108.5t72 87.5q104 82 248 45q74 -19 137 -111q58 -86 59 -157q1 -73 -34 -161t-94 -161q-70 -87 -161 -133q-106 -54 -226 -47q-21 1 -34.5 16.5t-12.5 36t16.5 34t36.5 12.5z" />
    <glyph glyph-name="colon" unicode=":" horiz-adv-x="197" 
d="M174 498q-6 -23 -4 -54q1 -21 -13 -36t-34.5 -16t-35.5 13t-16 34q-2 46 8 84q5 20 22.5 30.5t37.5 5t30.5 -23t4.5 -37.5zM191 178v-4v-2v-1q1 -11 1 -15q1 -6 3 -11q6 -20 -3 -38t-28.5 -24.5t-38 2.5t-24.5 29q-5 14 -7 29q-1 9 -2 24v2v2v3q-1 21 13 36t34.5 15.5
t35.5 -13.5t16 -34z" />
    <glyph glyph-name="semicolon" unicode=";" horiz-adv-x="203" 
d="M187 481q-5 -13 -5 -17q0 -2 1 -7q1 -11 2 -15v-5q3 -20 -10 -36t-33.5 -18.5t-36.5 10.5t-18 33v4q-1 2 -1 5t-0.5 6t-0.5 4q-2 9 -2 16q0 23 10 52q7 20 25.5 29t37.5 2t28 -25t3 -38zM196 27q-14 -22 -38 -70l-1 -1q-19 -38 -30 -57q-10 -17 -30 -22.5t-37.5 4.5
t-23 30t4.5 37q10 18 28 53l1 1q26 52 42 77q11 18 31 22.5t37 -6.5t22 -31t-6 -37z" />
    <glyph glyph-name="less" unicode="&#x3c;" horiz-adv-x="322" 
d="M309 472q-41 -42 -84 -81q-24 -21 -65 -56q-30 -25 -39 -34q6 -5 15 -13q17 -13 60 -43q3 -2 21 -14.5t23 -15.5q29 -20 52 -36q17 -12 20.5 -32.5t-8.5 -37t-32 -20t-37 8.5q-23 16 -51 35q-5 4 -23 16.5t-21 13.5q-46 32 -65 47q-31 24 -44 44q-22 32 -12 67
q6 25 32 50q12 13 46 40q39 34 62 54q41 36 79 76q14 14 34.5 14.5t35.5 -13.5t15 -34.5t-14 -35.5z" />
    <glyph glyph-name="equal" unicode="=" horiz-adv-x="432" 
d="M84 475q63 6 145 0q35 -2 102 -10q39 -4 57 -6q21 -2 33.5 -18t10.5 -36.5t-17.5 -33.5t-36.5 -11q-18 2 -58 7q-65 7 -98 9q-74 6 -128 0q-20 -2 -36 11t-18 33.5t11 36.5t33 18zM99 207q34 8 76 11q29 2 73 2h18q46 1 69 2q20 1 35.5 -12.5t16.5 -34t-13 -36t-34 -16.5
q-25 -1 -74 -2h-17q-84 -1 -128 -11q-20 -4 -37.5 6.5t-22 30.5t6.5 37.5t31 22.5z" />
    <glyph glyph-name="greater" unicode="&#x3e;" horiz-adv-x="359" 
d="M97 572q2 -1 11.5 -8.5t20.5 -16t14 -11.5q42 -33 74 -59q10 -8 19 -16q50 -42 78 -70q18 -18 28 -31q7 -10 11 -19q8 -17 6 -34q-3 -19 -15 -38q-8 -14 -22 -28q-20 -20 -56 -47q-13 -10 -31 -23l-29 -21q-16 -11 -26 -19q-24 -18 -32 -26q-13 -15 -33.5 -16t-36 12.5
t-16.5 34t13 35.5q14 16 46 40q11 8 28 20q22 16 29 20q17 13 29 22q29 22 44 37l2 2l-9 9q-25 25 -72 64q-8 8 -18 16q-31 25 -72 57q-3 3 -14 11.5t-20.5 16t-12.5 9.5q-16 13 -18 33.5t11 36.5t33 18t36 -11z" />
    <glyph glyph-name="question" unicode="?" horiz-adv-x="469" 
d="M174 97q14 -11 20 -29q10 -28 -3 -58q-13 -28 -39 -41q-33 -17 -68 -3q-37 15 -46 50q-8 29 8 58q13 23 37 37.5t51 11.5q27 -2 40 -26zM39 690q145 103 257 100q75 -1 121 -52t51 -146q7 -113 -39 -186q-38 -61 -109 -89q-37 -14 -80 -18q-6 -1 -12 -1q-2 -12 -5 -38
l-8 -55q-1 -11 -2 -19q-1 -6 -1 -7q-3 -20 -19.5 -32.5t-36.5 -10t-32.5 19t-9.5 36.5q0 2 1 7q1 8 2 19q4 25 8 56l7 56q2 11 3 18q1 6 1 7q3 21 19 33t36 10h1q2 -1 4 -1q17 -1 36 1q28 2 52 12q40 15 61 49q29 46 24 128q-3 60 -26 85q-17 19 -49 19q-79 2 -198 -82
q-17 -12 -37 -8.5t-32 20t-8.5 37t20.5 32.5z" />
    <glyph glyph-name="at" unicode="@" horiz-adv-x="763" 
d="M562 455q1 -11 1 -22q2 -18 7 -31t13 -19q12 -9 31 0q29 13 43 49q17 47 -3 106q-26 74 -119 108q-137 49 -249 -29q-52 -37 -91 -97.5t-58 -136.5q-29 -118 36 -207q58 -80 174 -117q111 -35 207 -11q90 23 112 89q7 19 25 28.5t37.5 3t29 -25t2.5 -37.5
q-19 -58 -66.5 -97.5t-115.5 -56.5q-123 -31 -261 13q-146 46 -224 153q-92 126 -52 289q24 93 72.5 168.5t116.5 122.5q74 52 160 62.5t178 -21.5q138 -49 179 -169q33 -93 2 -173q-28 -74 -93 -104q-33 -16 -69 -13t-64 24l-10 8q-10 -9 -26 -21q-1 -1 -2.5 -2t-2.5 -3
l-2 -1q-9 -6 -14 -10q-39 -33 -78 -42q-43 -10 -79 9q-32 17 -48 50.5t-14 73.5q6 84 80 137q81 59 216 50q21 -1 34.5 -16.5t11.5 -35.5q-1 -29 -27 -42v-4zM464 452q-48 -7 -79 -29q-36 -26 -39 -63q-1 -13 3 -23q3 -6 6.5 -7.5t10.5 -0.5q16 4 36 21q7 6 18 15l2 1
q1 1 2.5 2t2.5 2q23 17 29 28q8 13 8 32v21v1z" />
    <glyph glyph-name="A" unicode="A" horiz-adv-x="620" 
d="M169 286q14 0 33 1q108 1 162 -1q72 -3 132 -12q-25 181 -44 238q-23 69 -48 102q-9 12 -18 17q-5 3 -8 3q-12 1 -31 -17q-29 -26 -60 -81q-71 -125 -118 -250zM17 21q-7 70 17 168q-18 3 -29.5 17.5t-11.5 32.5q1 21 16 35t36 13q9 -1 18 -1q5 15 11 30q50 134 127 268
q39 69 79 106q50 46 103 43q56 -3 99 -59q36 -46 64 -131q22 -67 49 -263q25 -183 25 -248q0 -20 -14.5 -34.5t-35 -14.5t-35 14.5t-14.5 34.5q0 35 -12 139q-65 13 -148 16q-52 2 -157 1q-43 -1 -68 -1q-27 -96 -20 -155q2 -20 -10.5 -36t-33 -18.5t-36.5 10.5t-19 33z" />
    <glyph glyph-name="B" unicode="B" horiz-adv-x="588" 
d="M201 313q-21 -5 -51 -14q-8 -2 -17 -2q-1 -39 -1 -89v-85q1 -51 1 -74q19 -2 43 -1q74 3 145 25q81 24 126 64q45 41 43 96q-3 54 -34 77q-29 22 -86 25q-51 2 -120 -11l-20 -4q-14 -4 -29 -7zM178 409q15 4 30 7q170 42 240 109q31 29 36 58q5 23 -8 46q-15 27 -48 48.5
t-76 30.5q-101 21 -188 -35q-5 -4 -12 -6q0 -42 -4 -96q-2 -29 -5 -76q-5 -64 -6 -86q0 -4 -1 -9q22 5 42 9zM131 768q113 64 242 37q63 -14 113.5 -47.5t76.5 -80.5q30 -55 18 -114.5t-65 -109.5q-21 -20 -47 -37q26 -11 47 -27q68 -52 73 -152q4 -101 -76 -173
q-61 -55 -164 -86q-83 -25 -169 -29q-89 -3 -125 21q-14 9 -20 25q-5 11 -4 23q0 6 2 13q0 1 1 3v1q0 28 -1 88v85q0 123 5 208q1 22 6 86q4 47 5 75q6 91 4 149q-1 20 13 35t35 16q16 1 30 -9z" />
    <glyph glyph-name="C" unicode="C" horiz-adv-x="640" 
d="M527 562q21 67 12 104q-1 5 -2 8q-119 0 -227 -76q-104 -73 -156 -185q-52 -109 -27 -196q26 -92 135 -131q66 -22 118 -21q44 1 78 18q54 27 83 90q8 18 27.5 25.5t38 -1t25.5 -27.5t-1 -38q-19 -41 -47 -74q-35 -41 -82 -64q-114 -56 -272 -1q-78 27 -128.5 77.5
t-70.5 119.5q-34 123 33 265q64 136 189 224q138 97 292 94q36 -1 62 -27q21 -22 29 -58q14 -63 -15 -155q-6 -20 -24 -29.5t-37.5 -3.5t-29 24.5t-3.5 37.5z" />
    <glyph glyph-name="D" unicode="D" horiz-adv-x="651" 
d="M122 61q20 -4 48 -4q75 -2 150 14q90 21 148 63q64 48 79 122q18 87 -18 179q-34 86 -101 147q-64 59 -127 67q-60 7 -99 -37q-10 -12 -24 -16q-24 -147 -39 -280q-15 -121 -17 -193q-2 -40 0 -62zM146 696q71 63 167 51q94 -12 181 -92q85 -76 127 -184q47 -119 23 -234
q-22 -111 -117 -182q-74 -55 -185 -80q-87 -20 -175 -17q-37 1 -64 5q-15 3 -26 7q-17 5 -28 15q-14 13 -20 36q-4 13 -6 31q-2 29 0 75q3 76 17 201q20 166 47 328q3 20 20 32t37 8h2z" />
    <glyph glyph-name="E" unicode="E" horiz-adv-x="662" 
d="M608 651q-88 6 -258 4q-97 0 -158 -5q-33 -2 -53 -6q-3 0 -5 -1q-1 -2 -1 -5q-7 -26 -14 -68q-15 -89 -19 -186q56 6 145 25q14 3 43 10q64 14 97 20q55 11 100 16q20 2 36.5 -10.5t18.5 -33t-10.5 -36.5t-33.5 -18q-62 -8 -187 -35q-29 -6 -43 -10q-102 -21 -167 -28
q2 -71 13 -120q9 -38 22 -58q8 -13 16 -14q112 -22 247 -1q30 5 70 13q15 3 36 7q1 0 17 3t20 4q38 8 64 13q20 4 37 -8t21 -32t-8 -37t-32 -20q-25 -5 -62 -13q-5 -1 -20.5 -4t-16.5 -3q-22 -5 -37 -8q-42 -8 -73 -13q-153 -23 -282 2q-48 9 -79 56q-23 35 -36 91
q-21 88 -16 226q4 112 21 218q8 47 16 77q5 17 9 28q9 22 23 32q17 13 53 19q24 4 63 7q64 5 164 5q174 2 265 -4q20 -1 33.5 -16.5t12.5 -36t-16.5 -34t-35.5 -12.5z" />
    <glyph glyph-name="F" unicode="F" horiz-adv-x="621" 
d="M573 661q-19 -1 -36 -1q-195 -6 -270 -14q-86 -9 -115 -27q-17 -12 -21 -42q-2 -19 -1 -53q0 -15 2 -37q0 -3 0.5 -12.5l1 -19t0.5 -10.5q1 -14 1 -25q1 -17 3 -34q12 -1 29 -2q43 0 105 8q116 15 191 37q20 6 38 -4t24 -29.5t-4 -37.5t-29 -24q-83 -24 -208 -40
q-68 -9 -117 -9q-11 1 -20 1q3 -37 5 -62q10 -120 -2 -201q-3 -20 -19.5 -32.5t-36.5 -9.5t-32.5 19.5t-9.5 36.5q10 70 2 180q-2 26 -7 76q-8 82 -10 122q-1 11 -2 25q0 1 -0.5 10t-1 18.5t-0.5 13.5q-2 23 -2 38q-1 42 2 69q9 77 66 113q48 31 157 42q80 9 278 14
q17 1 37 2q20 0 35 -14t15.5 -34.5t-13.5 -35.5t-35 -15z" />
    <glyph glyph-name="G" unicode="G" horiz-adv-x="621" 
d="M534 572q-88 74 -185 50q-91 -23 -157 -116q-67 -93 -66 -198q2 -110 87 -180q35 -29 91 -47q61 -20 110 -12q51 9 78 52q36 58 29 174h-1l-10 5q-26 9 -76 13q-40 2 -97 0h-6h-7h-4h-12q-21 0 -35.5 14.5t-14.5 35t14.5 35t35.5 14.5h9h3h8h6q62 2 106 -1q65 -4 104 -18
q30 -11 48 -28q26 -25 28 -59q9 -151 -44 -237q-50 -81 -145 -97q-73 -13 -158 15q-73 24 -123 65q-120 99 -123 255q-2 137 84 257q42 59 97.5 99t116.5 55q146 37 273 -70q15 -13 17 -33.5t-11.5 -36.5t-33.5 -17.5t-36 11.5z" />
    <glyph glyph-name="H" unicode="H" horiz-adv-x="617" 
d="M577 682q0 -44 -4 -163q-4 -91 -5 -143q-1 -107 8 -180q11 -86 36 -134q10 -18 4 -37.5t-24.5 -29t-38 -3.5t-28.5 24q-34 64 -47 168q-8 61 -9 140q-139 -9 -324 -39q-6 -150 -6 -258q0 -21 -14.5 -35.5t-35 -14.5t-35 14.5t-14.5 35.5q0 130 12 390q0 12 1 18
q8 175 10 270q0 21 15 35t35.5 13.5t34.5 -15t14 -35.5q-2 -96 -10 -273q-1 -7 -1 -18q-1 -14 -1 -26q180 28 320 37q1 37 4 100q4 117 4 157q0 21 14 35.5t34.5 15t35.5 -14t15 -34.5z" />
    <glyph glyph-name="I" unicode="I" horiz-adv-x="383" 
d="M26 737q36 -1 110 2h9q96 4 148 -1q21 -2 34 -18t11 -36.5t-18 -33.5t-37 -11q-27 3 -60 3q7 -94 10 -214q1 -62 3 -187q1 -130 3 -190q5 0 11 -1q57 -1 84 -1q21 0 35.5 -14.5t14.5 -35t-14.5 -35t-35.5 -14.5q-29 0 -87 1q-31 1 -47 2q-100 2 -160 -8q-20 -4 -37 8
t-20.5 32t8.5 37t32 20q52 9 117 10q-2 59 -3 188l-3 186q-3 120 -10 213q-64 -2 -102 -1q-20 1 -34 16t-13 35.5t16 34.5t35 13z" />
    <glyph glyph-name="J" unicode="J" horiz-adv-x="550" 
d="M74 211q21 -88 90 -111q73 -25 173 22q55 26 76 76q20 49 14 123q-6 68 -35 160q-22 68 -63 169q-2 4 -3 9h-1q-61 -6 -104 -3q-20 1 -33.5 16t-12.5 35.5t16 34.5t36 12q35 -2 89 3l33 3q51 5 76 7q45 2 81 -2q20 -2 33 -18t11 -36t-18 -33t-36 -11q-29 2 -66 1h-1
q36 -91 57 -157q32 -102 39 -181q9 -99 -21 -170q-36 -85 -124 -127q-137 -65 -248 -27q-59 20 -98.5 66.5t-55.5 115.5q-5 20 5.5 37.5t30.5 22t37.5 -6t22.5 -30.5z" />
    <glyph glyph-name="K" unicode="K" horiz-adv-x="577" 
d="M553 622q-22 -14 -59 -35q-2 -1 -6.5 -4t-9.5 -5l-4 -3q-91 -52 -135 -83q-69 -46 -111 -92q-17 -19 -38 -38q-10 -9 -33 -28q-17 -15 -24 -21q-2 -3 -4 -5q10 -12 36 -30q58 -41 152.5 -93t168.5 -83q18 -8 26 -27t0 -37.5t-27 -26.5t-38 0q-78 33 -177.5 87.5
t-161.5 98.5l-1 1q1 -88 10 -163q3 -20 -9.5 -36t-33 -18.5t-36.5 10t-19 32.5q-17 139 -8 351q2 42 6 124q8 132 9 195q1 20 16 34.5t35.5 14t34.5 -15.5t13 -36q-1 -64 -9 -198q-2 -42 -3 -66q25 22 42 41q50 54 128 107q47 33 141 87q1 0 5 2.5t9 5.5t7 4q36 21 57 34
q18 10 38 5t30.5 -22.5t5.5 -37.5t-23 -30z" />
    <glyph glyph-name="L" unicode="L" horiz-adv-x="563" 
d="M120 690q9 -42 7 -111q-1 -37 -8 -127q-3 -47 -5 -74q-9 -148 13 -219q13 -41 36 -63.5t61 -28.5q53 -8 156 -9h12q84 0 126 -4q20 -1 33.5 -16.5t12 -36t-17 -34t-36.5 -11.5q-38 3 -119 3h-12q-110 1 -170 10q-134 21 -177 162q-16 51 -19 123q-2 54 2 129q2 28 6 77
q6 87 7 121q2 57 -5 88q-4 20 7 37t31 21.5t37.5 -6.5t21.5 -31z" />
    <glyph glyph-name="M" unicode="M" horiz-adv-x="743" 
d="M-29 20q-4 35 15 151q15 99 41 227q25 125 46 211q11 45 19 69q5 16 9 24q4 9 9 15q6 8 14 12q19 11 40 6q12 -4 22 -14q4 -3 8 -8q5 -6 12 -16q11 -17 29 -47q29 -49 77 -134l6 -12q28 -50 60 -109q19 53 35 100q2 4 4 9q31 89 50 138q12 30 18 46q4 10 7 15q3 6 7 11
q7 8 16 13q14 8 30 6q20 -3 33 -19q5 -7 8 -16q2 -4 4 -10q3 -9 7 -25q7 -27 19 -77q16 -72 50 -224q1 -4 2 -7q1 -7 11 -51.5t12 -55.5q13 -60 22 -97q22 -98 28 -123q6 -20 -4 -37.5t-30 -23t-37.5 4.5t-23.5 30q-8 27 -30 128q-8 37 -22 97q-2 10 -12 55t-11 51t-2 8
q-26 119 -40 182q-9 -24 -19 -52q-2 -5 -3 -9q-23 -64 -50 -141q-9 -24 -16 -47q-3 -7 -5 -13q-1 -2 -1 -3v-1q-11 -31 -43.5 -33.5t-47.5 25.5q0 1 -1 2q0 1 -1 3q-4 6 -7 13q-13 23 -26 47q-42 77 -77 142q-4 6 -7 12q-34 62 -59 104q-20 -81 -42 -194q-25 -125 -41 -223
q-16 -103 -14 -126q2 -20 -11 -36t-33.5 -17.5t-36.5 11.5t-17 33z" />
    <glyph glyph-name="N" unicode="N" horiz-adv-x="620" 
d="M30 9q-9 95 -14 255q0 34 -2 112q-2 116 -5 170q-3 69 -7 110q-4 10 -3 20q-2 20 10.5 35t31.5 18q20 3 36.5 -9.5t19.5 -32.5l10 -16q22 -35 45 -73q73 -120 136 -219q8 -12 15 -23q129 -204 178 -266q22 -26 38 -41q3 19 3 47q0 25 -3 61q0 1 -0.5 9t-1 15.5t-0.5 9.5
q-2 31 -3 42q-1 28 -3 52q-5 69 -10 124q-17 168 -40 213q-10 18 -3.5 37.5t24.5 29t37.5 3.5t29.5 -24q32 -62 50 -249q6 -57 11 -127q1 -25 3 -54l2 -41q1 -2 1.5 -9t1 -15t0.5 -9q3 -39 3 -68q0 -42 -6 -71q-4 -20 -10 -35q-10 -22 -25 -35q-22 -17 -49 -17q-23 0 -47 14
q-35 20 -80 77q-53 66 -185 274q-7 11 -14 23q-45 69 -94 150q1 -35 2 -98q2 -77 2 -111q4 -157 13 -248q2 -21 -11 -36.5t-33.5 -17.5t-36 11t-17.5 33z" />
    <glyph glyph-name="O" unicode="O" horiz-adv-x="665" 
d="M514 676q10 -4 17 -12q70 -73 105.5 -167t27.5 -187q-8 -103 -66.5 -182t-159.5 -121q-66 -27 -133 -30q-83 -3 -143 33q-114 69 -138 219q-20 132 36 265q58 139 167 198q129 70 273 -5q8 -4 14 -11zM454 599q-97 51 -180 6q-78 -43 -123 -150t-29 -210q16 -105 91 -150
q35 -21 88 -19q49 3 99 23q75 31 117.5 87.5t47.5 131.5q6 72 -22 145.5t-84 132.5l-1 1z" />
    <glyph glyph-name="P" unicode="P" horiz-adv-x="638" 
d="M191 245q2 -47 2 -72t-1 -67t-1 -58q-2 -21 -17.5 -34t-36 -11.5t-33.5 17.5t-11 36q10 120 -10 285q-23 189 -73 292q-8 18 -1.5 37.5t24.5 28.5q17 8 35 3q17 3 23 4q27 5 48 8q55 9 99 15q139 17 206 0q50 -11 98.5 -49t71.5 -84q32 -63 21.5 -118.5t-60.5 -99.5
q-67 -58 -207 -96q-49 -14 -109 -25q-27 -5 -68 -12zM126 612q37 -107 55 -259q1 -5 2 -9q32 5 58 10q56 11 101 23q118 32 168 76q24 22 28.5 44t-11.5 54q-14 26 -45.5 50.5t-60.5 31.5q-50 12 -171 -3q-42 -5 -95 -13q-14 -3 -29 -5z" />
    <glyph glyph-name="Q" unicode="Q" horiz-adv-x="712" 
d="M384 750q61 3 119 -27q48 -25 91 -71q68 -73 101 -163q29 -80 11 -165q-16 -74 -67 -142q-21 -29 -48 -56q28 -19 60 -39q17 -11 21.5 -31t-6.5 -37.5t-31 -22t-38 6.5q-47 30 -87 58q-54 -35 -110 -51q-78 -22 -147.5 -6.5t-123.5 66.5q-47 44 -76.5 108.5t-35.5 137.5
q-14 159 72 278q98 137 289 156h6zM354 328q48 -60 133 -127l22 -16q29 26 51 56q80 109 42 215q-26 70 -81 128q-65 70 -134 67h-1q-145 -15 -217 -115q-64 -89 -54 -211q5 -55 26.5 -103.5t54.5 -79.5q73 -67 176 -37q25 7 51 21q-92 72 -146 141q-13 16 -10.5 36t18.5 33
t36 10.5t33 -18.5z" />
    <glyph glyph-name="R" unicode="R" horiz-adv-x="609" 
d="M141 321h2q160 20 261 79q82 49 87 98q1 18 -11 36q-18 25 -59 46q-91 47 -260 63q0 -47 -3 -105q-3 -45 -10 -135q-3 -31 -4 -47q-2 -19 -3 -35zM105 746q236 -12 361 -78q63 -32 94 -77q34 -47 29 -102q-9 -99 -134 -174q-62 -36 -144 -60q138 -76 282 -202
q15 -14 16.5 -34.5t-12 -35.5t-34 -16.5t-35.5 11.5q-103 90 -206.5 155.5t-181.5 88.5l-4 2q-1 -22 -1 -44q-1 -93 12 -167q4 -20 -8 -36.5t-32 -20t-37 8t-20 31.5q-15 83 -14 185q0 71 9 183q1 16 4 47q7 89 10 133q4 70 2 125q-8 14 -7 30q1 20 16 34t35 13z" />
    <glyph glyph-name="S" unicode="S" horiz-adv-x="609" 
d="M102 101q25 -26 87 -38q68 -14 140 -2q76 13 124 49q49 37 57 94q1 8 -3 14q-8 10 -29 21q-22 12 -60 24q-26 8 -79 21q-13 4 -17 5q-60 15 -93 26q-53 17 -86 37q-46 27 -67 65q-25 46 -12 101q16 68 89 124.5t160 71.5q100 17 170 -31q81 -56 95 -183q2 -21 -11 -36.5
t-33 -18t-36 10.5t-19 33q-8 82 -52 112q-37 26 -97 15q-61 -10 -113 -50q-48 -36 -56 -70q-5 -19 2 -31q7 -14 30 -28q25 -14 67 -28q29 -10 87 -24l17 -5q55 -14 83 -23q47 -14 77 -30q42 -22 63 -51q27 -38 21 -86q-13 -97 -95 -159q-68 -51 -168 -67q-93 -16 -181.5 2.5
t-133.5 66.5q-14 14 -13.5 34.5t15.5 35t35.5 14t34.5 -15.5z" />
    <glyph glyph-name="T" unicode="T" horiz-adv-x="644" 
d="M71 719q132 -14 343 -2q21 1 64 8q7 1 10 2q67 10 111 7q20 -2 33.5 -17.5t11.5 -36t-17.5 -34t-35.5 -11.5q-32 3 -87 -6q-3 -1 -10 -2q-48 -8 -75 -9h-3q15 -83 21 -192q8 -149 -3 -329q-2 -32 -5 -62q-1 -9 -1 -17q-1 -4 -1 -6q-2 -20 -18 -33t-36 -11t-33 17.5
t-11 36.5v1v4l2 16q2 29 4 60q10 174 3 318q-6 112 -22 193q-146 -5 -255 6q-21 3 -33.5 18.5t-10.5 36t18 33.5t36 11z" />
    <glyph glyph-name="U" unicode="U" horiz-adv-x="659" 
d="M147 643q-3 -37 -14 -112q-9 -56 -12 -85q-11 -100 3 -166q11 -54 51 -99t95 -66q54 -21 104 -11q53 10 91 56q68 81 88 238q16 126 -1 276q-2 20 11 36t33 18t36 -10.5t19 -32.5q18 -161 0 -300q-24 -185 -110 -289q-60 -72 -147 -89q-78 -16 -160 15q-78 31 -134.5 95
t-72.5 143q-17 81 -4 197q3 30 12 88q10 73 13 107q2 20 18 33t36.5 11.5t33.5 -17.5t11 -36z" />
    <glyph glyph-name="V" unicode="V" horiz-adv-x="550" 
d="M83 697q20 -1 33.5 -15.5t13.5 -34.5q0 -1 1 -5q1 -7 5 -20q7 -26 20 -68q23 -73 65 -192q4 -12 9 -24q26 -75 58 -161q34 85 63 161l16 42q66 176 86 254q5 20 22.5 30.5t37.5 5.5t30.5 -22.5t5.5 -37.5q-21 -84 -89 -265q-8 -21 -17 -43q-35 -92 -77 -196
q-13 -32 -25 -62q-4 -9 -7 -17q-1 -3 -2 -5l-1 -1q-8 -20 -28 -28q-2 0 -3 -1q-8 -2 -16 -2t-16 3q-1 0 -2 1q-20 8 -27 28q0 1 -1 2q-1 2 -1 5q-3 8 -7 17q-11 31 -23 63q-39 106 -71 196l-8 24q-42 120 -66 195q-32 100 -31 125q1 21 16 35t36 13z" />
    <glyph glyph-name="W" unicode="W" horiz-adv-x="1020" 
d="M111 712v-2q1 -2 2 -5q3 -9 7 -20q11 -36 23 -74q40 -121 74 -222q6 -15 11 -30q43 -127 71 -199q11 -28 19 -48q10 16 21 41q28 68 65 223q1 2 9.5 38.5t17.5 74.5t13 53q22 89 39 127q9 21 19 34q8 10 18 16q14 10 31 11q33 2 51 -31q5 -9 10 -23q7 -21 16 -59
q15 -66 34 -175q41 -231 45 -304q1 -12 2 -23q29 54 67 153q49 128 100 298q19 64 33 115q6 22 10 36q1 7 2 11l1 3q2 20 18 33t36.5 11t33 -18t10.5 -37q-3 -30 -49 -183q-53 -173 -103 -304q-68 -179 -115 -228q-24 -25 -51 -28q-39 -5 -64 30q-24 34 -30 125
q-4 67 -43 293q-11 63 -21 111l-4 -18q-4 -14 -13 -52t-17.5 -74.5t-9.5 -38.5q-38 -163 -70 -238q-24 -57 -52 -85q-20 -20 -43 -28q-28 -9 -57 1q-13 6 -24 18q-4 5 -8 11q-5 9 -12 24q-11 25 -28 69q-28 73 -72 202q-5 15 -10 31q-35 101 -75 223q-12 38 -24 73
q-3 11 -6 21q-1 3 -2 5q0 1 -1 2q-6 20 3.5 38t29 24.5t37.5 -3t25 -29.5z" />
    <glyph glyph-name="X" unicode="X" horiz-adv-x="627" 
d="M100 706q53 -98 135 -217q29 -41 61 -85q34 44 67 85q93 114 180 198q15 14 35.5 13.5t34.5 -15t14 -35t-15 -35.5q-83 -79 -172 -189q-39 -47 -83 -105l33 -44q22 -29 67 -85q2 -2 3 -4q29 -36 63 -77q11 -14 21 -26q3 -4 6 -7l2 -2q13 -16 11 -36.5t-17.5 -33.5
t-36 -11t-33.5 18h-1q0 1 -1 2q-3 3 -6 7q-10 12 -21 26q-35 42 -64 78q-1 2 -3 4q-46 57 -69 88q-8 11 -16 21q-6 -8 -12 -17l-11 -15q-7 -9 -11 -14q-83 -112 -134 -175q-13 -16 -33.5 -18.5t-36.5 10.5t-18 33.5t11 36.5q49 62 131 172q5 6 11 14q3 4 11 15q17 22 30 40
q-43 59 -79 111q-86 125 -141 228q-10 18 -4 37.5t24 29t38 3.5t29 -24z" />
    <glyph glyph-name="Y" unicode="Y" horiz-adv-x="626" 
d="M617 639q-30 -43 -64 -104q-24 -42 -63 -117q-1 -4 -10.5 -22.5t-11.5 -22.5q-68 -134 -113 -203q-70 -109 -144 -171q-16 -13 -36.5 -11t-33.5 18t-11 36t18 33q62 52 124 148q19 30 38 63q-22 2 -35 19q-16 21 -42 54q-38 46 -49 60q-50 63 -81 109q-42 64 -63 119
q-9 24 -14 47q-4 20 6.5 37t30.5 21.5t37.5 -6t22.5 -30.5q3 -17 10 -34q17 -45 53 -100q28 -41 76 -101l48 -59q27 -34 43 -56q12 23 27 52q1 4 10.5 22.5t11.5 21.5q39 77 64 122q37 65 70 112q12 17 32.5 20.5t37 -8.5t20 -32.5t-8.5 -36.5z" />
    <glyph glyph-name="Z" unicode="Z" horiz-adv-x="657" 
d="M57 690q39 -7 95 -9q35 -1 109 -1h32q95 1 152 -5q85 -8 145 -33q7 -3 13 -8q1 0 2.5 -1.5l2.5 -2.5q11 -10 16 -24q4 -15 0 -29q-5 -17 -19 -30q-6 -6 -15 -12q-6 -3 -13 -7h-1q-33 -23 -118 -95.5t-162 -142.5q-101 -92 -156 -153q-10 -11 -18 -21q61 -6 222 -8
q112 -2 242 -1h8h8h4h1q21 0 35.5 -14.5t14.5 -35t-14 -35t-35 -14.5h-1h-5h-7.5h-7.5q-132 -1 -245 1q-174 2 -240 11h-4h-7q-12 0 -22 1q-15 1 -26 3q-9 2 -16 5t-13 7q-12 9 -17 23q-8 23 1 49q6 14 17 31q17 27 52 65q58 64 162 159q129 118 242 209q-17 3 -36 4
q-52 6 -142 5h-32q-75 0 -112 1q-63 2 -109 10q-20 4 -31.5 20.5t-8 37t20 32t36.5 8.5z" />
    <glyph glyph-name="bracketleft" unicode="[" horiz-adv-x="334" 
d="M255 661q-12 -1 -41 -1q-16 1 -24 1q-12 -1 -21 -1v-15q-1 -36 -2 -100q0 -21 -0.5 -57.5t-0.5 -63.5v-26q0 -1 -0.5 -24t-1.5 -55t-2 -50q-2 -77 -2 -141q-2 -112 0 -178q1 -31 2 -51q16 -1 41 -1h39q40 1 48 1q20 -2 33 -18t11 -36.5t-17.5 -33.5t-35.5 -11h-1h-2h-8
h-12h-8h-6q-25 -1 -41 -1q-35 0 -57 2q-16 1 -27 4q-21 6 -34 18q-9 9 -13 21q-2 6 -4 13q-2 10 -4 25q-2 24 -3 66q-2 67 0 181q0 64 2 142q1 19 2 51t1 54l1 23q1 100 1 147q1 65 2 102q0 22 1 35q0 7 1 12q0 4 1 7q3 16 14 27q19 19 53 26q20 4 48 4q10 1 28 0h29
q20 3 36 -10t18 -33.5t-10.5 -36.5t-33.5 -18z" />
    <glyph glyph-name="backslash" unicode="\" horiz-adv-x="454" 
d="M154 729q51 -113 144 -340q1 -3 2 -5q97 -237 150 -355q9 -19 1.5 -38t-26 -27.5t-37.5 -1.5t-28 26q-54 119 -152 358q-1 3 -2 5q-92 226 -142 337q-8 19 -1 38t26 27.5t38 1t27 -25.5z" />
    <glyph glyph-name="bracketright" unicode="]" horiz-adv-x="370" 
d="M87 726q4 20 21 31t37 7h4q5 -1 15 -1q1 0 6.5 -0.5t6.5 -0.5q8 0 14 -1q24 -1 39 -3q12 -2 20 -5q7 -2 13 -5q10 -6 17 -14q15 -18 24 -50q7 -24 11 -57q6 -51 6 -133q1 -37 0 -100q-1 -81 0 -98v-3q1 -2 2 -9q1 -9 6 -32q10 -59 16 -94.5t10 -65.5q14 -89 15 -143
q1 -35 -2 -57q-3 -17 -9 -29q-11 -22 -31 -31q-27 -12 -60 -19q-21 -4 -56 -8q-3 0 -8 -1q-34 -3 -49 -6q-20 -4 -37 8t-20.5 32t8 37t31.5 20q19 4 56 8q5 1 8 1q48 5 70 12q1 12 0 30q-1 48 -13 132q-5 29 -10 63q-6 35 -17 94q-8 45 -9 53q-1 21 0 107q1 63 0 98
q0 77 -6 122q-3 26 -7 42q-1 2 -1 4q-9 1 -23 2h-13q-1 0 -6.5 0.5t-6.5 0.5q-25 1 -34 3q-20 5 -31.5 22t-6.5 37z" />
    <glyph glyph-name="asciicircum" unicode="^" horiz-adv-x="513" 
d="M73 632q20 38 59 78q25 26 65 61q38 33 54 42q16 10 32 13q22 3 41 -7q11 -5 21 -15q6 -5 14 -14q0 -1 5.5 -7t7.5 -8q8 -9 15 -17q44 -46 109 -102q16 -13 17.5 -33.5t-12 -36t-34 -17t-36.5 11.5q-68 59 -115 108q-9 10 -19 21q-2 2 -8 9q-9 -7 -27 -23
q-37 -32 -59 -54q-29 -31 -43 -57q-10 -18 -29.5 -24t-37.5 4t-24 29.5t4 37.5z" />
    <glyph glyph-name="underscore" unicode="_" horiz-adv-x="664" 
d="M13 -57q48 1 115 -3q37 -3 120 -10q36 -3 56 -5q99 -8 161 -8q82 0 138 15q20 5 37.5 -6t22.5 -30.5t-5.5 -37.5t-30.5 -22q-67 -17 -161 -18q-67 0 -170 8q-21 2 -57 5q-82 8 -118 10q-62 4 -106 3q-20 -1 -35 13.5t-15.5 35t13.5 35t35 15.5z" />
    <glyph glyph-name="grave" unicode="`" horiz-adv-x="276" 
d="M179 808q36 -59 78 -91q16 -12 19 -32.5t-9.5 -37t-33 -19t-36.5 10.5q-57 43 -102 117q-11 18 -6 38t22.5 30.5t37.5 5.5t30 -22z" />
    <glyph glyph-name="a" unicode="a" horiz-adv-x="449" 
d="M343 412q-109 4 -170 -32q-62 -36 -67 -117q-5 -79 14 -129q14 -41 40 -53q26 -13 67 2q55 19 121 82q2 1 3 2v70q-2 95 -8 175zM439 441q9 -94 11 -202v-131v-75q0 -20 -14.5 -34.5t-35.5 -14.5t-35.5 14.5t-14.5 34.5l1 5q-47 -33 -90 -48q-81 -29 -144 2
q-62 30 -90 108q-26 70 -20 169q8 133 116 196q97 58 261 43q17 -1 29.5 -12.5t15.5 -28.5q9 -11 10 -26z" />
    <glyph glyph-name="b" unicode="b" horiz-adv-x="540" 
d="M144 530q6 4 13 8q129 71 239 8q45 -26 78.5 -71.5t50.5 -103.5q35 -119 -8 -223q-24 -58 -71 -96.5t-112 -52.5q-38 -8 -135 -5q-47 2 -80 7q-20 3 -34 7q-22 6 -35 16q-17 13 -22 39q-2 11 -3 28q-1 27 -1 75q2 82 10 213q18 291 32 356q5 20 22 31t37 6.5t31 -21.5
t7 -38q-6 -29 -19 -183zM124 100q4 -1 9 -1q28 -4 69 -6q85 -3 112 3q81 17 112 90q29 71 4 157q-24 84 -83 117q-62 36 -141 -9q-58 -32 -58 -57q0 -22 -16 -37q-7 -118 -9 -193q0 -40 1 -64z" />
    <glyph glyph-name="c" unicode="c" horiz-adv-x="505" 
d="M400 404q-96 56 -176 26q-71 -27 -106 -104q-34 -75 -10 -142q26 -71 114 -93q66 -16 106 -7q39 9 98 53q17 12 37 9t32.5 -19.5t9.5 -37t-20 -32.5q-76 -56 -134 -69q-64 -15 -153 7q-68 17 -114.5 57t-68.5 98q-18 51 -14.5 107.5t27.5 109.5q25 55 66.5 95.5
t94.5 59.5q124 47 260 -32q18 -10 23.5 -30t-5 -37.5t-30 -23t-37.5 4.5z" />
    <glyph glyph-name="d" unicode="d" horiz-adv-x="547" 
d="M419 399q-122 61 -212 5q-42 -26 -67 -73.5t-28 -108.5q-4 -82 34 -119q29 -30 91 -39q33 -5 95 -5h17q55 -1 82 8q8 3 12 6q2 1 2 2q4 7 3 28q-1 11 -4 30q-1 7 -2 19q-1 1 -1 3.5t-1 4.5v2q-1 6 -2 10q-2 18 -4 32q-6 41 -10 123v1q-3 48 -5 71zM412 509v37v12
q0 55 -2 82q-1 44 -6 79q-3 20 9 36.5t32.5 19t37 -9.5t19.5 -32q5 -40 7 -89q1 -28 2 -85v-12q1 -79 5 -122q3 -31 7 -91v-2q4 -78 9 -116q2 -12 4 -29q1 -4 2 -10v-2q0 -2 0.5 -4.5t0.5 -3.5q2 -12 3 -20q4 -22 5 -38q3 -49 -14 -80q-21 -40 -72 -56q-41 -14 -112 -13h-16
q-33 0 -51 1q-32 1 -59 5q-95 14 -147 67q-69 68 -63 194q5 85 42 153.5t100 107.5q114 71 257 21z" />
    <glyph glyph-name="e" unicode="e" horiz-adv-x="476" 
d="M122 263q22 -2 54 2q13 1 37 4q42 6 60 7q50 4 84 34q31 27 13 68q-12 28 -26 41q-9 8 -22 10q-32 5 -117 -29q-38 -16 -66 -84q-11 -25 -17 -53zM120 164q12 -60 57 -81q30 -14 75 -11q54 3 126 30q19 7 37.5 -1.5t26 -27.5t-1 -37.5t-27.5 -26.5q-172 -64 -277 -16
q-98 45 -116 165q-14 97 27 196q45 107 121 137q52 22 87 30q46 11 82 6q81 -12 124 -110q22 -53 12 -99.5t-50 -81.5q-28 -25 -66.5 -40.5t-76.5 -17.5q-15 -1 -53 -7q-26 -3 -41 -5q-38 -4 -66 -2z" />
    <glyph glyph-name="f" unicode="f" horiz-adv-x="434" 
d="M120 18q-1 3 -1 11q-2 17 -2 27v13q0 2 1 12v14q0 22 -6 69q-2 19 -7 48l-1 5q0 5 -1 11.5t-2 13.5l-2 14t-1 10q-11 76 -16 128q-1 16 -2 31q-26 3 -49 11q-20 6 -29.5 24t-3.5 37.5t24 29t37 3.5l18 -4q1 54 11 97q13 59 42 97q34 47 89 63q61 18 110 6q60 -15 97 -69
q11 -17 7 -37.5t-21 -31.5t-37 -7t-32 21q-15 22 -37 28q-24 6 -59 -5q-46 -14 -62 -87q-8 -35 -9 -83h15h10q49 0 75 -1q44 -3 79 -12q20 -5 30.5 -22.5t5.5 -37.5t-22.5 -30.5t-37.5 -5.5q-26 7 -61 9q-22 1 -68 1h-10h-13l2 -16q4 -49 15 -123q0 -4 1.5 -13t2.5 -17.5
t2 -15.5t1 -8q5 -30 7 -49q7 -54 7 -83v-16q-1 -10 -1 -11v-9q0 -7 1 -21q1 -8 1 -13q2 -20 -11.5 -35.5t-34 -17t-36 12t-16.5 34.5z" />
    <glyph glyph-name="g" unicode="g" horiz-adv-x="515" 
d="M417 112v32q-1 50 -5 135q-4 70 -5 92q-1 27 0 47q-63 19 -116 13q-52 -6 -92 -36q-36 -27 -58 -70.5t-26 -92.5q-4 -46 9.5 -83t40.5 -57q29 -20 73 -18q56 2 128 41q26 14 51 -3zM507 437q-2 -21 -1 -63q1 -21 5 -90q4 -87 5 -140q1 -151 -27 -239q-20 -60 -55 -96
q-42 -44 -103 -53q-74 -11 -166 3.5t-147 45.5q-18 10 -23.5 30t4.5 37.5t29.5 23t37.5 -4.5q41 -23 117 -34t134 -3q53 8 78 82q12 38 17 92q-92 -49 -170 -53q-77 -3 -134 37q-49 35 -73 95.5t-19 132.5q6 70 38 132t86 102q63 47 144 55.5t175 -24.5q18 -6 27 -23
q23 -16 21 -45z" />
    <glyph glyph-name="h" unicode="h" horiz-adv-x="540" 
d="M131 697q-19 -82 -17 -251q60 50 130 76q61 22 108 12q48 -11 77 -54q20 -30 29 -79q7 -31 10 -82q1 -8 2 -25q4 -61 9 -83q6 -28 22 -63q10 -22 33 -64q10 -18 4 -38t-23.5 -30t-37.5 -4t-30 24q-25 45 -36 71q-20 44 -29 82q-7 30 -11 99q-1 17 -2 24q-6 88 -23 114
q-6 9 -15 11q-19 4 -54 -8q-94 -35 -159 -123q1 -22 2 -54q6 -148 6 -200q0 -21 -14.5 -35.5t-35 -14.5t-35 14.5t-14.5 35.5q0 50 -6 196q-3 74 -4 119q-4 112 -1 189q4 100 19 164q4 20 21.5 30.5t37.5 6t31 -22t6 -37.5z" />
    <glyph glyph-name="i" unicode="i" horiz-adv-x="173" 
d="M144 751q19 -10 24 -31q6 -26 5 -45q-1 -27 -16 -45q-20 -24 -51 -22q-21 1 -39 14q-32 24 -34 65q-3 48 43 78q17 11 36.5 6.5t31.5 -20.5zM144 456v-1q0 -3 -1 -5q-1 -9 -2 -20q-4 -33 -7 -67q-7 -83 -9 -152q-3 -108 8 -166q4 -20 -7.5 -37t-32 -20.5t-37.5 8
t-20 31.5q-13 68 -10 186q2 73 10 159q3 35 7 70l2 20q0 3 1 5v2q3 20 19 32.5t36.5 10t33 -18.5t9.5 -37z" />
    <glyph glyph-name="j" unicode="j" horiz-adv-x="206" 
d="M144 751q19 -10 24 -31q6 -26 5 -45q-1 -27 -16 -45q-20 -24 -51 -22q-21 1 -39 14q-32 24 -34 65q-3 48 43 78q17 11 36.5 6.5t31.5 -20.5zM168 499q56 -305 31 -499q-23 -175 -108 -241q-43 -32 -91.5 -31t-90.5 33q-38 28 -60.5 75.5t-25.5 103.5q-1 20 12.5 35.5
t34 16.5t36 -12.5t16.5 -34.5q4 -72 47 -106q32 -24 61 -1q22 17 40 55q21 47 31 120q23 179 -30 468q-4 20 7.5 37t32 20.5t37 -8t20.5 -31.5z" />
    <glyph glyph-name="k" unicode="k" horiz-adv-x="469" 
d="M168 717q-18 -78 -25 -178q-5 -65 -7 -175q38 27 114 65q1 1 4 2.5l6 3t4 1.5q46 24 69 37q33 20 54 39q16 13 36.5 11.5t34 -16.5t12 -35.5t-16.5 -34.5q-28 -25 -70 -49q-26 -15 -75 -40l-3 -2q-3 -1 -6 -2.5t-4 -2.5q-4 -2 -9 -4q4 -6 9 -12l3 -5q4 -4 8.5 -10.5
t9.5 -13.5t10 -13.5t7 -10.5q38 -52 58 -90q46 -84 39 -148q-2 -20 -18 -33t-36.5 -10.5t-33.5 18.5t-11 36q4 33 -27 89q-17 33 -51 81q-3 4 -9.5 12.5t-12.5 17t-11 15.5l-5 7q-9 12 -15 21q-4 -2 -7 -5q-40 -28 -60 -58q0 -18 -1 -37q-4 -81 -12 -145q-2 -20 -18 -32.5
t-36.5 -10t-33 18.5t-10.5 37q8 59 11 136q2 46 3 141q1 14 1 22q2 122 7 192q8 107 28 192q5 20 22.5 31t37 6t30.5 -22.5t6 -36.5z" />
    <glyph glyph-name="l" unicode="l" horiz-adv-x="153" 
d="M151 728q-16 -131 -8 -352q1 -28 4 -83q6 -156 6 -232q0 -20 -14.5 -34.5t-35 -14.5t-35 14.5t-14.5 34.5q0 74 -6 228q-2 55 -3 84q-9 228 7 366q3 20 19 33t36.5 10.5t33 -18.5t10.5 -36z" />
    <glyph glyph-name="m" unicode="m" horiz-adv-x="681" 
d="M552 444l-4 -2q-8 -5 -18 -13q-17 -14 -49 -47q-2 -2 -5 -4q-32 -33 -47 -47q-9 -8 -20 -11q1 -28 0 -61q-1 -159 -17 -266q-2 -20 -18.5 -32.5t-37 -9.5t-32.5 19.5t-10 36.5q15 101 16 253q1 89 -6 141q-2 19 -6 31l-18 -9q-79 -39 -124 -100q-6 -9 -16 -15
q-1 -21 -1 -33q-3 -93 0 -143q3 -65 14 -92q8 -18 0.5 -37t-26.5 -27.5t-38 -0.5t-27 26q-18 43 -22 126q-3 54 0 151q0 13 1 37q3 74 3 105q0 52 -3 81q-3 20 10 36t33.5 18.5t36.5 -10.5t18 -33q3 -25 4 -61q42 36 93 61q1 0 3 1q1 0 1 1h1q2 1 3 2q7 3 12 6q11 5 20 8
q15 5 28 7q23 3 41 -7q17 -8 29 -25q8 -12 14 -28t10 -37l7 7l5 5q36 36 57 53q38 32 70 38q54 11 90 -34q26 -33 39 -103q15 -82 16 -204q0 -36 -1 -104v-73q0 -21 -14.5 -35.5t-35 -14.5t-35 14.5t-14.5 35.5v74q1 68 1 102q-1 113 -15 188q-7 39 -16 55z" />
    <glyph glyph-name="n" unicode="n" horiz-adv-x="483" 
d="M124 517v-1v-2t1 -2v-14q2 -22 3 -46q39 30 79 51q54 27 98 30q67 4 102 -45q32 -44 46 -107q11 -48 12 -113q1 -32 0 -91q-2 -68 0 -93q1 -18 4 -30q2 -4 3 -8q1 -2 2 -2q12 -17 9 -37.5t-19.5 -32.5t-37 -9t-32.5 19q-23 32 -28 92q-2 30 0 103q1 57 0 86
q-3 114 -39 165q-2 2 -4 3q-4 2 -12 1q-23 -1 -59 -19q-33 -17 -66 -43q-28 -22 -37 -35q-6 -8 -14 -13l2 -34q1 -21 2 -41q11 -203 11 -254q0 -21 -14.5 -35.5t-35 -14.5t-35 14.5t-14.5 35.5q0 48 -11 249q-1 20 -2 41q-4 74 -9 157q-1 27 -3 51v13q0 2 -1 4v1
q-1 21 12.5 36t34 16.5t36 -12t16.5 -34.5z" />
    <glyph glyph-name="o" unicode="o" horiz-adv-x="500" 
d="M276 434q-46 -5 -85 -40q-55 -50 -72 -131q-18 -80 14 -137q34 -60 117 -69q67 -7 106 37t44 121q6 76 -23 136q-28 56 -72 65q-18 3 -29 18zM373 495q58 -30 92 -100q42 -85 34 -188q-8 -109 -68 -178q-73 -83 -191 -70q-135 14 -193 119q-50 90 -25 206q24 113 103 184
q91 82 209 62q30 -5 39 -35z" />
    <glyph glyph-name="p" unicode="p" 
d="M144 133q20 12 42 5q90 -30 153 16q56 42 68 119q12 76 -28 122q-45 52 -142 38q-38 -5 -56 -10q-20 -5 -32 -11q-2 -24 -4 -54q-3 -81 -1 -214v-11zM159 520q16 4 36 7q7 1 16 2l12 2q151 22 231 -71q33 -39 46.5 -92t4.5 -110q-9 -56 -37 -104t-71 -80
q-103 -75 -242 -30q-5 1 -9 4q0 -23 1 -51q0 -12 1 -28v-13q0 -9 1 -14q0 -30 1 -49q1 -52 1 -78q0 -21 -14.5 -35.5t-35 -14.5t-35 14.5t-14.5 35.5q0 29 -4 179q-2 89 -3 149q-2 135 2 219q0 21 2 38q-4 10 -4 21q1 17 9 32q5 41 14 64q8 19 27 27t38 0q17 -7 26 -24z" />
    <glyph glyph-name="q" unicode="q" horiz-adv-x="465" 
d="M334 156q0 21 1 49q0 29 1 43q2 122 7 196q-9 0 -16 -1q-38 -2 -65 -11q-58 -20 -101 -94q-52 -91 -43 -158q7 -49 46.5 -72.5t87.5 -10.5q50 12 82 59zM442 450q-5 -76 -7 -204q-1 -14 -1 -43q-4 -166 -9 -249q0 -15 1 -42q1 -7 1 -11q2 -46 -6 -81q-5 -20 -22.5 -30.5
t-37.5 -6t-30.5 22t-5.5 37.5q5 21 3 53q0 3 -1 10q-2 33 0 54q1 31 3 62q-25 -14 -53 -21q-88 -23 -163 21q-81 48 -94 144q-14 101 56 222q61 106 154 138q39 13 91 16q35 2 97 0q20 -1 34 -16t13 -36q-1 -26 -23 -40z" />
    <glyph glyph-name="r" unicode="r" horiz-adv-x="453" 
d="M135 366q-12 -171 7 -344q2 -21 -10.5 -37t-33 -18t-36.5 10.5t-18 33.5q-14 120 -12 251t19 238q3 20 20 32t37 8q17 -2 28.5 -15t12.5 -29q14 6 29 10q66 22 147 21q54 0 88 -37q27 -29 36 -75q7 -35 3 -73t-17 -64q-9 -19 -28.5 -25.5t-38 2t-25 28t2.5 38.5
q5 10 7 31q3 24 -1 44q-4 18 -11 26q-6 6 -17 6q-65 1 -115.5 -15.5t-72.5 -45.5q0 -1 -1 -1z" />
    <glyph glyph-name="s" unicode="s" horiz-adv-x="476" 
d="M321 357q-4 15 -8 47q-1 13 -2 18q-3 26 -7 40q-6 0 -13 -1q-41 -8 -87 -34q-49 -28 -74 -61q-22 -29 -15 -54l2 -1q6 -5 21 -9q25 -7 95 -12q11 0 16 -1q45 -3 72 -7q41 -6 70 -18q88 -38 85 -130q-1 -34 -27 -62q-18 -21 -48 -37q-49 -26 -121 -40q-67 -13 -122 -11
q-31 1 -52 7q-15 5 -26 12q-17 11 -25 27q-9 18 -2.5 37.5t24.5 28.5q15 8 31 5t28 -15q9 -3 26 -3q43 -2 99 9q58 12 93 30q15 9 22 16l1 1q0 13 -5.5 20t-19.5 13q-29 13 -110 19q-4 0 -16 1q-38 2 -58 4q-33 4 -56 10q-33 9 -54 25q-29 21 -38 55q-20 71 30 139
q38 50 105 88q61 35 118 45q32 6 56 2q17 -3 30 -11q18 -10 27 -28q10 -19 16 -45q4 -17 8 -42q0 -5 2 -18q3 -27 5 -38q5 -20 -6 -37.5t-31 -22t-37.5 7t-21.5 31.5z" />
    <glyph glyph-name="t" unicode="t" horiz-adv-x="422" 
d="M242 681q0 -5 -2 -22.5t-4 -36.5t-2 -21q-3 -29 -6 -54h5h2h71q40 -1 73 -5q20 -2 32.5 -18.5t10 -36.5t-18.5 -33t-36 -10q-42 5 -131 4h-1q-9 0 -17 -1q-4 -44 -7 -83q-10 -125 -11 -203q-1 -45 1 -73q1 -14 3 -23q0 -4 1 -6v-2q9 -18 1.5 -37.5t-26 -27.5t-38 -1
t-27.5 26q-16 36 -14 146q1 81 11 209q3 37 7 77q-40 3 -74 11q-20 4 -31 21t-6.5 37t21.5 31.5t37 6.5q28 -6 63 -8q3 29 6 63q1 3 2.5 21.5t3.5 36t3 22.5q2 20 18 33t36 11t33 -18t11 -36z" />
    <glyph glyph-name="u" unicode="u" horiz-adv-x="420" 
d="M111 489q-9 -55 -10 -118q-1 -78 11 -138q13 -68 39 -102q26 -33 65 -33q11 0 24 2q24 3 54 11q8 3 16 5q-1 19 -3 59q-3 55 -4 89q-3 90 0 150q5 81 22 124q7 19 26 27.5t38 1t27 -26.5t1 -38q-11 -28 -15 -94q-3 -55 0 -141q1 -33 4 -87q5 -110 5 -144
q0 -20 -14.5 -34.5t-34.5 -14.5q-31 0 -45 28q-35 -10 -65 -13q-19 -3 -36 -3q-88 0 -143 71q-41 53 -59 144q-13 71 -12 158q1 71 11 132q3 21 20 33t37 8.5t32 -20t9 -36.5z" />
    <glyph glyph-name="v" unicode="v" horiz-adv-x="447" 
d="M122 524q15 -47 28 -106q8 -36 21 -105q1 -5 1 -6q11 -56 17 -86q3 -12 5 -29q31 45 63 104q65 119 94 206q7 20 25 29t37.5 2.5t29 -24.5t2.5 -38q-32 -96 -102 -223q-76 -140 -138 -202q-9 -9 -21 -13q-20 -6 -38 3q-12 5 -20 17q-4 5 -7 11q-3 9 -6 23v1v1q-1 3 -1 4
q-8 24 -13 65q-1 2 -1 7q-3 25 -6 35q-6 31 -17 88q-1 3 -1 6q-13 69 -21 102q-12 55 -25 98q-6 20 3.5 38t29 24t37.5 -3.5t24 -28.5z" />
    <glyph glyph-name="w" unicode="w" horiz-adv-x="657" 
d="M138 495q-1 -29 2 -101q5 -98 16 -170q9 -60 20 -93q33 50 74 160q31 80 42 127q-7 29 15 49q16 18 39 17q19 -1 33 -14.5t15 -31.5q9 -20 17 -51q8 -30 18 -91q1 -5 2 -12q1 -1 1 -3v-3q1 -4 1 -7l5 -25q17 -102 36 -140q5 -10 10 -16q3 -3 6 -4q0 -1 1 -1h1l1 1
q6 15 12 43q11 47 23 141l11 86q7 48 11 75q5 33 10 51q6 19 24 29t37.5 4.5t29.5 -23.5t5 -37q-4 -13 -8 -40q-4 -25 -10 -72q-9 -66 -11 -86q-13 -99 -25 -150q-9 -37 -18 -59q-6 -16 -14 -26q-13 -18 -30 -25q-52 -22 -96 1q-35 18 -58 63q-16 32 -28 81q-9 34 -18 88
l-2 12q-46 -118 -83 -172q-14 -21 -29 -34q-20 -17 -43 -21q-26 -4 -50 10q-17 10 -29 29q-30 44 -46 156q-11 77 -16 180q-4 75 -3 108q1 21 16 35t35.5 13t34.5 -16t13 -35z" />
    <glyph glyph-name="x" unicode="x" horiz-adv-x="530" 
d="M255 341q94 115 155 179q14 15 34.5 16t35.5 -13t15.5 -34.5t-13.5 -35.5q-62 -66 -158 -183l112 -112l23 -23t36.5 -36t20.5 -21q15 -14 15 -34.5t-14.5 -35t-35 -14.5t-35.5 14q-3 4 -20 21l-36 36t-23 22l-105 105q-40 -51 -65 -88q-20 -29 -30 -48q-4 -8 -6 -13
q-1 -19 -15 -33t-34.5 -14t-35 14.5t-14.5 34.5q0 23 18 57q12 24 35 57q30 44 77 104q-145 148 -168 189q-11 18 -5.5 37.5t23 30t37.5 5.5t30 -23q17 -29 146 -161z" />
    <glyph glyph-name="y" unicode="y" horiz-adv-x="530" 
d="M525 465q-42 -73 -117 -218l-6 -12l-6 -12q-75 -147 -120 -225q-14 -24 -44 -67q-1 -2 -1 -3q-38 -54 -51 -84q-9 -18 -28 -25.5t-38 1t-26 27.5t1 38q12 25 29 53q11 17 31 47q1 0 2 2q27 39 39 60q5 8 10 17q-8 6 -13 14q-129 210 -175 387q-5 20 5.5 37.5t30.5 22.5
t37.5 -5.5t22.5 -30.5q38 -147 144 -328q22 41 56 107q2 5 6 12l6 12q76 147 118 222q10 18 30 23.5t38 -5t23.5 -30t-4.5 -37.5z" />
    <glyph glyph-name="z" unicode="z" horiz-adv-x="516" 
d="M102 520h54h231q45 0 67 -8q10 -3 18 -8q11 -8 18 -20q15 -27 1 -55q-7 -13 -20 -24q-8 -8 -20 -16q-17 -12 -49 -30q-161 -92 -264 -219q2 0 5 -1q47 -5 125 -6q55 0 134 1q5 0 20.5 0.5t17.5 0.5h27q21 0 35.5 -14.5t14.5 -35t-14.5 -35t-35.5 -14.5h-25
q-2 0 -17.5 -0.5t-20.5 -0.5q-81 -1 -137 -1q-83 1 -135 7q-33 4 -55 9q-33 9 -50 26q-16 16 -16 39q0 12 4.5 24t14.5 26q4 6 9 11q5 7 12 15q1 1 2 3l2 1q1 1 1 2q106 131 257 224h-157h-54q-21 0 -35.5 14.5t-14.5 35t14.5 35t35.5 14.5z" />
    <glyph glyph-name="braceleft" unicode="{" horiz-adv-x="348" 
d="M332 718q-14 -13 -32 -21q-9 -4 -25 -9q-13 -3 -16 -7q-41 -41 -60 -105q-8 -27 -14 -64q-3 -22 -9 -70v-2q-10 -86 -21 -130q-6 -26 -31 -40q-2 -1 -3 -2q2 -4 5 -9v-1q12 -23 16 -31q10 -19 12 -29q8 -28 15 -89q1 -3 1 -8l1 -5v-4q2 -10 3 -17q2 -19 4 -34
q13 -83 35 -121q24 -39 69 -39q21 0 35.5 -14.5t14.5 -35t-14.5 -35t-35.5 -14.5q-101 0 -153 87q-33 55 -49 157q-2 16 -5 37q-1 7 -2 17v4l-1 4q-1 6 -1 9q-7 53 -12 74q0 1 -1 2q-1 4 -4 10q-4 7 -15 28l-1 1q-13 24 -18 36q-5 10 -7 17q-2 6 -3 11q-3 13 0 25
q7 26 31 41q9 7 23 11q6 31 14 98v2q5 50 9 75q7 43 17 76q26 88 85 147q15 15 33 23q10 5 26 10q14 3 17 7q15 14 35.5 13t34.5 -16.5t13 -36t-16 -33.5z" />
    <glyph glyph-name="bar" unicode="|" horiz-adv-x="164" 
d="M155 807q-40 -261 -13 -542q1 -14 2 -52q1 -8 2.5 -72.5t2.5 -81.5q3 -80 6 -126q2 -28 4 -45q1 -9 2 -15q0 -2 1 -4v-1q6 -19 -3 -37.5t-28.5 -25t-38 3t-24.5 28.5q-12 35 -18 218q0 18 -2 82.5t-3 72.5q-1 35 -2 45q-28 294 14 567q3 20 19.5 32t37 9t32.5 -19.5
t9 -36.5z" />
    <glyph glyph-name="braceright" unicode="}" horiz-adv-x="308" 
d="M100 812q6 -4 15 -9q2 -1 9 -5t7 -5q34 -19 52 -35q30 -26 46 -61q21 -43 25 -96q3 -36 -1 -90q-1 -8 -2 -24q-5 -47 -5 -69q0 -33 4 -53l1 -1q1 -2 4 -7q5 -8 16 -23q0 -1 1 -2q1 -2 9 -13.5t10 -14.5q4 -7 7 -10q2 -3 3 -6q2 -3 3 -6q7 -16 1 -34q-6 -20 -24 -50h-1
q-14 -25 -16 -36q-4 -25 -1 -66q0 -10 2 -29q3 -48 3 -71q-1 -44 -12 -76q-30 -87 -138 -119q-20 -6 -38 4t-24 29.5t4 37.5t30 24q34 10 52 26q14 12 20 30t7 46q0 19 -3 62q-2 20 -2 30q-3 52 2 87q3 21 13 42q6 11 17 30q4 6 6 10q-11 15 -11.5 16.5t-1.5 2.5
q-12 16 -18 26q-12 19 -15 30q-9 37 -9 84q0 27 5 78q1 15 2 23q4 46 2 74q-3 35 -16 62q-7 15 -19.5 26t-39.5 27l-3 2q-4 2 -8 4.5t-5 3.5q-11 6 -18 11q-18 10 -22.5 30t6.5 37.5t31 22t38 -6.5z" />
    <glyph glyph-name="asciitilde" unicode="~" horiz-adv-x="565" 
d="M52 370q81 81 169 72q34 -4 70 -23q23 -11 55 -34q2 -1 9 -6t8 -6q10 -7 16 -11q15 -10 24 -13q4 -2 7 -2q1 -1 2 -1l1 1q1 0 3 2q10 8 30 43q8 14 13 23q9 15 15 24q1 1 1 2q12 16 32.5 19.5t37 -8t20 -32t-8.5 -36.5v-1q-5 -7 -11 -18q-1 0 -2 -2l-2 -4t-2.5 -4.5
t-2.5 -4.5t-2 -3.5t-2 -2.5v-1q-13 -23 -23 -37q-15 -22 -32 -35q-49 -39 -111 -14q-19 7 -42 23q-7 5 -18 12q-1 1 -8.5 6t-8.5 7q-51 35 -79 38q-18 2 -36 -5q-25 -10 -52 -38q-15 -14 -35.5 -14t-35 14.5t-14.5 35t15 34.5z" />
    <glyph glyph-name="exclamdown" unicode="&#xa1;" horiz-adv-x="267" 
d="M142 714l2 2q25 14 51 10.5t44 -23.5q23 -26 28 -69q4 -38 -9 -70q-8 -21 -22 -35q-19 -19 -45 -22q-48 -7 -78 20.5t-30 73.5q0 33 16.5 64.5t42.5 48.5zM194 413q-1 -5 -3 -11q-4 -20 -5 -65q-1 -44 -4 -68q-3 -22 -7 -45q-11 -61 -36 -170q-23 -100 -31 -143
q-4 -20 -21 -31.5t-37 -7.5t-31.5 21t-7.5 37q8 44 32 146q24 107 34 165q4 22 7 42q2 18 3 56q2 54 7 83q2 9 5 18q5 19 23 29t37.5 4.5t30 -23t4.5 -37.5z" />
    <glyph glyph-name="cent" unicode="&#xa2;" horiz-adv-x="470" 
d="M394 518q-66 43 -118 47q-40 3 -70 -18q-29 -21 -46.5 -61.5t-19.5 -89.5q-1 -48 13.5 -87t40.5 -58t65 -14q52 6 119 51q17 12 37 8t31.5 -21t8 -37t-20.5 -31q-59 -41 -114 -58q1 -20 1 -51v-12q-1 -23 -1 -31q0 -21 -14.5 -35.5t-35 -14.5t-35 14.5t-14.5 35.5
q0 11 1 32v12v39q-48 5 -86 32q-48 34 -72.5 95.5t-22.5 133.5t30.5 133t77.5 95q45 33 102 37q1 11 3 25q2 6 4 14q1 2 2 6q0 1 0.5 3t0.5 3q3 9 4 15q4 20 21.5 31t37.5 6.5t31 -22t7 -37.5l-5 -20q-5 -15 -6 -20q-2 -11 0 -19q47 -16 97 -48q17 -12 21 -32t-7 -37
t-31 -21t-37 7z" />
    <glyph glyph-name="sterling" unicode="&#xa3;" horiz-adv-x="595" 
d="M486 644q-26 19 -55 25t-75 3q-93 -6 -145 -96q-25 -43 -42 -105q27 1 57 2q57 1 171 1h14q20 0 34.5 -14t14.5 -35t-14.5 -35t-34.5 -14h-14q-113 0 -168 -2q-43 -1 -80 -3q-1 -10 -3 -21q-7 -60 -9 -135q-1 -37 -2 -86q8 0 17 1q52 3 140 10q168 13 249 22q20 2 36 -11
t18 -33.5t-11 -36.5t-33 -18q-81 -8 -251 -22q-89 -7 -143 -10q-31 -2 -49 -2h-17q-15 0 -26 5q-16 8 -24 24q-5 10 -5 23v9v6q0 77 2 122q2 79 10 144q-22 -2 -42 -5q-21 -3 -37.5 9t-19.5 32.5t9.5 37t32.5 19.5q36 5 74 9q22 95 60 162q79 135 224 145q58 4 99 -4
q52 -11 96 -43q17 -12 20 -32t-9 -36.5t-32 -20t-37 8.5z" />
    <glyph glyph-name="currency" unicode="&#xa4;" horiz-adv-x="577" 
d="M316 497q-28 2 -51 -8q-37 -15 -55 -57q-17 -40 -5 -76q11 -31 42 -39q40 -10 78 12q36 20 55 58q16 34 8 58q-3 9 -11 15q-10 9 -29 13q-21 5 -32 24zM458 292q0 -1 1 -2q0 -3 2 -5q10 -17 37 -42l36 -30q16 -13 18.5 -33.5t-10.5 -36.5t-33.5 -18t-36.5 11
q-27 21 -40 33q-39 36 -57 67q-2 3 -3 5q-71 -39 -149 -20q-39 10 -67 35q-22 -17 -30 -36t-27 -26.5t-38 1t-26.5 27.5t0.5 38q14 31 41 57q13 13 31 25q-15 64 12 128q7 16 15 30l-4 6q-56 78 -80 141q-7 19 1.5 37.5t27.5 26t38 -1t26 -27.5q18 -48 62 -112q11 6 22 11
q80 33 177 -5q1 1 2 1q10 6 27 20q2 1 3 2q1 0 2 2h1q20 15 31 23q20 13 38 21q19 8 38 0.5t27 -26.5t0.5 -38t-26.5 -27q-16 -7 -48 -32q-1 0 -3 -1.5t-3 -2.5q-14 -11 -22 -17q7 -12 11 -25q21 -62 -14 -132q-8 -17 -18 -32q6 -9 8 -20z" />
    <glyph glyph-name="yen" unicode="&#xa5;" horiz-adv-x="582" 
d="M99 243q27 -3 84 -8q26 -2 45 -4q18 48 37 92q-16 7 -24 23q-2 4 -4 7q-59 6 -111 9q-20 1 -34 16.5t-13 36t16.5 34t35.5 12.5q26 -1 53 -3q-33 61 -63 104q-10 16 -35 47h-1q0 1 -1 2l-2 2q-29 36 -43 58q-24 37 -34 73q-6 20 4.5 38t30 23.5t37.5 -5t23 -29.5
q6 -22 22 -47q11 -17 37 -48q0 -1 2 -2l1 -2v-1q28 -33 42 -53q38 -58 85 -147l13 -26q7 -1 16 -2q81 173 173 312q12 17 32 21t37 -7.5t21 -31.5t-7 -37q-81 -121 -153 -271q47 -6 80 -10q20 -2 33 -18t10.5 -36.5t-18.5 -33.5t-36 -10q-40 4 -112 14q-25 -56 -49 -116
q6 -1 11 -2q56 -11 104 -29q19 -7 27.5 -25.5t1.5 -38t-25.5 -28t-38.5 -1.5q-40 15 -87 24q-15 3 -29 5q-24 -65 -48 -136q-6 -20 -24.5 -29t-38 -2.5t-28.5 25t-3 37.5q20 60 41 116q-8 1 -16 1q-59 5 -88 8q-20 2 -33 18t-11 36.5t18 33.5t37 11z" />
    <glyph glyph-name="brokenbar" unicode="&#xa6;" horiz-adv-x="138" 
d="M116 797q-11 -61 -6 -145q3 -64 18 -151q3 -21 -8.5 -37.5t-32 -20t-37 8.5t-20.5 32q-15 93 -19 162q-6 97 8 169q4 20 21 31.5t37 8t31.5 -20.5t7.5 -37zM138 351q-1 -11 -2 -28q0 -1 -1.5 -14t-1.5 -16q-7 -71 -9 -113q-5 -106 8 -170q4 -20 -7.5 -37.5t-31.5 -21.5
t-37 7.5t-21 31.5q-15 77 -10 195q3 44 9 117q1 4 2 16.5t1 13.5q2 17 3 28q2 21 17.5 34t36 11t33.5 -17.5t11 -36.5z" />
    <glyph glyph-name="section" unicode="&#xa7;" horiz-adv-x="518" 
d="M443 689q-40 25 -105.5 37t-119.5 5q-54 -8 -75 -32q-9 -11 -11 -26q-4 -19 3 -44l2 -4q4 -4 8 -9q18 -17 50 -32q22 -11 68 -27q2 0 5 -1l2 -1l2 -1q46 -15 69 -26q40 -17 68 -39q73 -58 75 -160q0 -34 -12 -62q-9 -21 -24 -35q22 -24 29 -55q10 -45 -14 -101
q-24 -57 -73 -91t-116 -42q-67 -9 -136 12q-46 13 -116 50q-18 10 -24 29.5t3.5 37.5t29 24.5t37.5 -3.5q62 -33 99 -44q48 -14 94 -8q85 11 111 73q11 28 8 42q-1 8 -11 15q-15 10 -46 20q-22 6 -72 16q0 1 -2.5 1t-2.5 1q-4 0 -6 1q-55 11 -85 21q-50 15 -80 39
q-42 33 -52 82.5t15 112.5q15 37 36 62q4 6 10 12l-8 6q-10 10 -18 20q-13 18 -17 34q-28 101 28 165q45 52 135 65q71 10 153.5 -5.5t137.5 -49.5q17 -11 22 -31t-5.5 -37.5t-30.5 -22t-38 5.5zM172 480q-24 -7 -42 -51q-14 -37 -10 -58q3 -13 16 -23q16 -13 49 -23
q25 -8 75 -18q2 -1 6 -1q5 -1 5 -2q54 -11 80 -18l6 -2q8 13 23 19v1q1 1 1 2q4 9 4 20q-1 57 -38 86q-17 13 -46 26q-19 8 -61 23l-2 1h-3l-4 2q-34 11 -53 19q-3 -2 -6 -3z" />
    <glyph glyph-name="dieresis" unicode="&#xa8;" horiz-adv-x="472" 
d="M93 793q14 23 42 23q45 0 69 -34q18 -26 15 -62q-3 -32 -21 -58t-46 -37q-47 -19 -82 11q-29 24 -29 66q0 36 22 64q12 16 30 27zM315 784q4 15 17.5 25t29.5 10q26 0 51 -15.5t41 -39.5q19 -28 18 -57q-1 -42 -36 -66q-36 -24 -79 -12q-36 11 -57 41q-27 38 -11 79
q8 20 26 35z" />
    <glyph glyph-name="copyright" unicode="&#xa9;" horiz-adv-x="659" 
d="M459 640q-49 12 -100 2q-101 -19 -176 -103t-78 -180q-4 -101 82 -172q23 -20 61 -29q28 -6 80 -9q102 -7 162 56q55 57 68 156q11 92 -18 173t-81 106zM492 734q68 -18 128 -65q17 -12 19.5 -32.5t-10.5 -36.5q-3 -4 -6 -7q4 -8 7 -17q41 -107 26 -227
q-16 -132 -94 -213q-93 -95 -240 -86q-60 3 -97 12q-61 15 -102 49q-123 102 -117 252q5 131 103 242q98 110 232 135q69 12 135 -2q8 0 15 -4h1zM430 502q-80 17 -135 -19q-45 -30 -52 -80q-6 -46 28 -76q48 -41 150 -32q20 2 36 -11.5t17.5 -33.5t-11.5 -36t-34 -17
q-143 -13 -222 55q-36 31 -52.5 74t-9.5 90q6 45 31 84t65 65q89 59 210 33q20 -4 31.5 -21t7 -37t-21.5 -31.5t-38 -6.5z" />
    <glyph glyph-name="ordfeminine" unicode="&#xaa;" horiz-adv-x="395" 
d="M292 710q-34 10 -60 8q-29 -3 -48 -19q-17 -16 -25.5 -44t-5.5 -60q3 -29 15 -49q8 -15 16 -17q3 -1 7 0q8 1 18 8q31 19 67 72q5 9 13 14q0 54 3 87zM391 708q-4 -35 -2 -118q1 -23 2 -57q0 -3 0.5 -18t1.5 -18q0 -19 1 -31q0 -20 -14 -35t-34.5 -15.5t-35.5 13.5
t-15 35q0 6 -1 14q-16 -15 -32 -25q-54 -34 -106 -19q-46 14 -74 62q-23 39 -28 90q-5 54 11.5 103.5t52.5 82.5q44 40 106 44q64 5 141 -28q19 -8 26.5 -27t-0.5 -38v-2q1 -6 0 -13z" />
    <glyph glyph-name="guillemotleft" unicode="&#xab;" horiz-adv-x="547" 
d="M325 501q-20 -9 -43 -28q-16 -14 -46 -44q-8 -7 -10 -9l-9 -9q-31 -30 -53 -46q-16 -13 -24 -22l-2 -2l4 -4q8 -10 31 -27q2 -2 12 -9.5t11 -8.5q15 -11 26 -20q52 -42 80 -86q12 -17 7.5 -37t-22 -31.5t-37.5 -7t-31 21.5q-19 31 -59 63q-10 8 -24 19l-10 8q-10 7 -13 9
q-30 23 -44 39q-17 18 -24 37q-11 25 -5 51q9 44 64 86q17 13 44 39q4 3 9 8l9 9q33 32 53 49q33 27 63 42q19 8 38 1.5t28 -25t2 -38t-25 -28.5zM520 461q-28 -15 -76 -61q-1 0 -5.5 -4.5t-10 -9.5t-7.5 -7q-14 -13 -24 -21q-4 -4 -15 -14q10 -9 16 -13q19 -17 52 -53l1 -1
q37 -39 57 -55q16 -12 18.5 -32.5t-10 -36.5t-33 -18.5t-36.5 9.5q-26 21 -68 66q-1 0 -1 1q-30 31 -46 45l-38 32q-10 9 -16 16q-14 17 -15 37q-1 21 12 39q6 8 17 18q3 2 19.5 16.5t21.5 17.5q8 8 20 19q2 2 7.5 7t10 9.5t5.5 4.5q27 26 45 41q28 22 54 36q18 9 37.5 3
t29 -24t3.5 -37.5t-25 -29.5z" />
    <glyph glyph-name="logicalnot" unicode="&#xac;" horiz-adv-x="450" 
d="M46 407q38 10 85 11q26 0 78 -2q16 -1 24 -2h56q45 1 64 -2q42 -5 66 -29q28 -27 31 -75q2 -37 -10 -97q-4 -20 -21 -31.5t-37 -7.5t-31.5 21t-7.5 38q10 47 8 71q0 6 -1 10q-4 1 -9 2q-13 1 -51 1t-61 1q-9 0 -25 1q-48 2 -71 2q-35 -1 -63 -8q-20 -5 -37.5 5.5
t-22.5 30.5t5.5 37.5t30.5 22.5z" />
    <glyph glyph-name="registered" unicode="&#xae;" horiz-adv-x="712" 
d="M257 512q-1 -6 -1 -13q-1 -18 1 -43q80 10 133 33q11 5 19 10q-49 14 -147 13h-5zM461 708q-89 26 -170 -1q-93 -31 -152 -121q-58 -89 -54 -190q4 -107 79 -182q23 -23 74.5 -35t114.5 -9q65 3 119.5 21.5t81.5 45.5q19 19 37 78q22 70 23 140q0 79 -27 132
q-29 56 -92 76q-15 4 -24.5 16.5t-9.5 28.5zM580 734q61 -36 95 -101q39 -75 38 -179q-1 -84 -27 -167t-62 -119q-41 -43 -112 -68t-154 -29q-78 -4 -145 12q-77 19 -119 61q-102 103 -108 248q-6 133 70 248q78 119 204 161q141 47 291 -22q29 -13 29 -45zM177 247
q0 10 -3 35q0 3 -3 26.5t-4 29.5q-3 34 -6 60q-5 65 -4 105q1 28 6 47q7 30 23 47q11 11 26 16q10 3 22 2q8 0 22 -3h1q4 -1 5 -1q124 1 188 -21q38 -13 57 -36q27 -32 15 -71q-8 -28 -37 -52q-22 -17 -55 -32q-16 -7 -33 -13q14 -20 43 -49q1 -1 12 -11t22 -21l15 -15
q14 -15 14 -35.5t-15 -35t-35.5 -14t-34.5 15.5q-5 5 -26 25.5t-22 20.5q-39 39 -59 68q-9 14 -16 26q-13 -2 -26 -3q-2 0 -4 -1q0 -3 1 -8q0 -6 3 -29.5t3 -26.5q4 -29 4 -41q1 -21 -13 -36t-34.5 -16t-35.5 13t-16 34z" />
    <glyph glyph-name="degree" unicode="&#xb0;" horiz-adv-x="400" 
d="M318 805l10 -6q71 -61 73 -143q1 -72 -51 -130q-50 -55 -120 -65q-81 -12 -142 44q-56 51 -58 126q-1 64 37 122q40 57 100 78q70 25 136 -12q9 -5 15 -14zM254 733q-27 15 -55 5q-29 -10 -50 -41t-20 -64q1 -32 25 -55q27 -24 62 -19q34 5 60 34q26 28 26 62
q-1 36 -38 68q-5 4 -8 9q-1 0 -2 1z" />
    <glyph glyph-name="plusminus" unicode="&#xb1;" horiz-adv-x="452" 
d="M59 383q44 -4 100 -5h26q3 63 13 115q4 20 21.5 31t37.5 7t31 -21t7 -38q-9 -41 -11 -94q75 0 121 -2q20 -1 34 -16t13 -35.5t-16 -34.5t-36 -13q-43 2 -117 2q0 -10 1 -28v-69q0 -21 -14 -35.5t-35 -14.5t-35 14.5t-14 35.5q0 22 -1 67q-1 19 -1 30h-27q-60 1 -108 6
q-20 2 -33 17.5t-11 36t17.5 33.5t36.5 11zM27 27q44 1 130 7q12 0 18 1q129 8 204 4q20 -2 33.5 -17t12.5 -35.5t-16.5 -34t-35.5 -12.5q-68 4 -191 -4q-6 0 -18 -1q-89 -6 -135 -7q-20 0 -35 14t-15.5 34.5t14 35.5t34.5 15z" />
    <glyph glyph-name="uni00B2" unicode="&#xb2;" horiz-adv-x="368" 
d="M97 761q74 85 174 75q43 -5 69 -30t29 -68q3 -48 -36 -90q-23 -24 -70 -55q-7 -5 -18 -12l-4 -3q-4 -2 -8 -4.5t-6 -3.5q-45 -29 -65 -47q22 1 57 1h12q50 0 74 1q21 2 36 -12t16.5 -34.5t-12 -35.5t-34.5 -17q-27 -1 -81 -1h-12q-36 0 -56 -1q-1 0 -5 -1l-7 -1
q-5 -1 -8 -2q-8 -1 -14 -2q-22 -3 -36 -2q-15 0 -26 5q-12 6 -21 16q-11 14 -12 32q-2 63 50 116q29 29 91 69q2 1 6 3.5t8 4.5l4 3q10 6 17 11q37 24 51 39q10 11 10 17q0 2 -1 4q-3 1 -8 1q-26 3 -46.5 -6.5t-41.5 -34.5q-14 -15 -34.5 -17t-36 11.5t-17 34t11.5 36.5z
" />
    <glyph glyph-name="uni00B3" unicode="&#xb3;" horiz-adv-x="373" 
d="M67 808q59 26 123 29q47 3 78 -12q50 -23 55 -78q4 -45 -32 -82q-8 -8 -17 -16q70 -24 91 -62q22 -42 -8 -81q-16 -21 -48 -38q-46 -24 -114 -39q-28 -6 -50 -8q-13 -1 -23 0q-7 1 -13 2q-12 3 -21 10q-17 12 -19.5 32.5t9.5 36.5q19 26 51 18h2h6q15 1 37 6q46 10 79 25
q-27 11 -72 22q-5 1 -18 2q-28 2 -44 7q-9 3 -17 9q-17 13 -20 35q-2 19 10 35q4 7 11 12q9 6 23 12q4 1 8 3q1 0 4 2l4 1q4 1 5 2q15 6 20 9q12 5 20 10q23 11 33 22q2 1 3 3q-10 3 -27 2q-47 -3 -88 -22q-19 -8 -38 -0.5t-27.5 26t-1 37.5t25.5 28z" />
    <glyph glyph-name="acute" unicode="&#xb4;" horiz-adv-x="321" 
d="M293 704q-20 -9 -44 -32q-17 -17 -48 -53l-3 -3q-3 -3 -6 -6.5t-4 -5.5q-7 -9 -13 -15q-27 -31 -48 -50q-16 -13 -36.5 -11.5t-34 17t-12 35.5t17.5 34q15 14 39 40q5 6 12 14q1 2 4 5.5t5 6.5l3 3q34 40 56 61q35 34 69 50q19 9 38.5 2t28 -25.5t1.5 -38t-25 -28.5z" />
    <glyph glyph-name="uni00B5" unicode="&#xb5;" horiz-adv-x="543" 
d="M515 490q-2 -10 -1 -71t6 -142q11 -189 22 -233q5 -20 -5 -37.5t-30 -22.5t-38 5t-23 30q-6 25 -13 90q-33 -43 -79.5 -72t-97.5 -37q-65 -10 -116 16q-3 -59 -3 -113q0 -20 -14.5 -34.5t-35 -14.5t-35 14.5t-14.5 34.5q0 86 12 258q3 50 5 75q10 163 4 266
q-1 21 12.5 36t34 16.5t36 -12.5t16.5 -34q6 -109 -4 -278q-2 -22 -4 -53q1 -5 2 -9q4 -44 28 -60q23 -16 60 -10q45 7 83.5 39t55.5 76q5 14 17 23t26 9q0 13 -1 26q-5 83 -6 146q-2 73 3 95q5 20 22.5 31t37.5 6.5t30.5 -22t6.5 -37.5z" />
    <glyph glyph-name="paragraph" unicode="&#xb6;" horiz-adv-x="647" 
d="M474 707q-5 -41 0 -127v-2q4 -74 2 -111q-3 -65 -20 -193q-7 -53 -10 -79q-16 -139 -7 -228q2 -21 -11 -37t-33 -18t-36 11t-18 34q-10 100 7 249q2 20 5 43q-143 -28 -234 36q-48 34 -71.5 87t-19.5 115q3 59 32 113t78 93q111 89 279 69q7 1 14 0q20 -2 33 -18t10 -37z
M644 690q-30 -75 -20 -208q1 -23 6 -69q8 -80 9 -118q1 -57 -3 -170v-1q-2 -81 -2 -121q0 -20 -14.5 -34.5t-35 -14.5t-35 14.5t-14.5 34.5q0 42 3 125q3 110 2 164q-1 35 -9 112q-4 46 -6 71q-5 72 -1 125q5 70 27 126q8 19 26.5 27.5t38 1t27.5 -26.5t1 -38z" />
    <glyph glyph-name="periodcentered" unicode="&#xb7;" horiz-adv-x="205" 
d="M167 412q9 -4 17 -11q21 -19 21 -46q0 -22 -14 -40q-10 -12 -23 -20q-28 -16 -56 -13q-25 3 -41 20t-17 43q-1 14 0 23q2 15 10 28q4 8 11 16l6 6l2 2l3 3q14 16 34.5 16.5t35.5 -13.5q7 -6 11 -14z" />
    <glyph glyph-name="cedilla" unicode="&#xb8;" horiz-adv-x="448" 
d="M259 80q124 -59 167 -123q24 -36 22.5 -73t-27.5 -65q-42 -45 -119 -47q-76 -1 -133 43q-16 13 -18.5 33.5t10.5 36.5t33 18.5t37 -10.5q28 -23 69 -22q35 1 48 15l2 2q0 2 -1 4q-1 4 -5 10q-28 41 -128 88q-18 9 -25 28t1.5 38t28 26t38.5 -2z" />
    <glyph glyph-name="uni00B9" unicode="&#xb9;" horiz-adv-x="251" 
d="M50 787q46 32 70 48q14 9 21 13l10 5q7 3 13 4q11 2 21 -1q30 -7 37 -37q9 -42 4 -96q-2 -35 -13 -93l-3 -15q-8 -44 -11 -64q-2 -9 -3 -17q3 1 6 0q20 0 34.5 -14t14.5 -35t-14.5 -35t-34.5 -14q-12 0 -36 -2h-10q-60 -2 -96 6q-20 5 -30.5 22.5t-6 37.5t22 30.5
t37.5 5.5l14 -2q1 14 4 31q3 22 12 69q1 9 2 14q9 46 12 72q-10 -7 -21 -14q-16 -12 -36.5 -8t-32 20.5t-8 37t20.5 31.5z" />
    <glyph glyph-name="guillemotright" unicode="&#xbb;" horiz-adv-x="477" 
d="M76 526q14 -23 29 -44q34 -44 81 -82q3 -3 11.5 -9.5t16 -12t7.5 -6.5q21 -16 32 -29q24 -28 24 -61q0 -30 -23 -64q-30 -44 -142 -145q-15 -14 -35.5 -13t-34 16t-12.5 35.5t16 34.5q103 93 126 127l4 8q-5 5 -16 14l-5 3q-5 4 -10.5 8.5t-11.5 9t-9 7.5q-57 46 -98 99
q-19 25 -35 54q-11 17 -6 37t23 30.5t37.5 5.5t30.5 -23zM252.5 526q15.5 -13 39.5 -31q3 -2 8.5 -6.5t10.5 -8.5t9 -8l5 -3q45 -34 71 -57q39 -34 65 -67q17 -23 16 -53q-1 -21 -12 -43q-14 -28 -48 -64q-11 -13 -27 -29q-2 -1 -11 -10l-18.5 -18.5t-12.5 -13.5l-15 -15
q-4 -5 -5 -7q-11 -18 -30.5 -23t-37.5 5t-23 30t5 38q10 16 35 42l13 13t19.5 19t10.5 10q14 15 24 26q24 25 32 40q-19 22 -46 46q-23 21 -65 53l-5 3q-4 4 -9 8t-11 8t-8 6q-26 20 -43 34q-16 14 -17.5 34t11.5 36t33.5 17.5t36 -11.5z" />
    <glyph glyph-name="onequarter" unicode="&#xbc;" 
d="M276 140q1 28 2 62q-23 -21 -37 -38q-8 -9 -13 -17q2 0 4 -1q17 -4 44 -6zM150 729q-9 18 -3 37t23 28h1q0 1 2 2l8 4q15 10 24 15q1 0 2 1q17 10 27 16l12 6q6 2 10 3q8 2 15 2q10 0 19 -4q17 -8 25 -25q13 -29 13 -73q1 -28 -4 -72q-1 -9 -3 -25q-5 -36 -6 -50q3 1 7 2
q20 6 37.5 -4.5t23 -30t-4.5 -37.5t-30 -23q-45 -13 -98 -15q-36 -2 -93 1q-21 1 -34.5 16.5t-12.5 36t16 34t36 12.5q32 -2 53 -2q1 18 7 73q2 15 3 24q2 18 3 33q-10 -7 -12 -7q-18 -10 -37.5 -3.5t-28.5 25.5zM82 464q37 0 110 -2q27 -1 40 -1q139 -3 221 7
q20 3 36.5 -9.5t19 -33t-10 -36.5t-33.5 -19q-88 -11 -235 -8q-13 0 -40 1q-72 2 -108 2q-20 0 -34.5 14.5t-14.5 35t14.5 35t34.5 14.5zM379 267v-22q-1 -20 -2 -27q-1 -46 -2 -78q0 -19 1 -34q3 -8 3 -17q0 -6 -2 -11q1 -6 1 -10q2 -15 4 -25q1 -5 2 -8q0 -1 1 -1
q10 -18 4.5 -38t-23.5 -30t-37.5 -4.5t-29.5 23.5q-12 20 -17 56q-44 2 -73 9t-48 20q-28 19 -35 50q-7 28 7 59q10 23 32 49q40 47 126 114q16 13 36.5 10.5t33.5 -18.5q13 -17 10 -37q9 -14 8 -30z" />
    <glyph glyph-name="onehalf" unicode="&#xbd;" 
d="M150 729q-9 18 -3 37t23 28h1q0 1 2 2l8 4q15 10 24 15q1 0 2 1q17 10 27 16l12 6q6 2 10 3q8 2 15 2q10 0 19 -4q17 -8 25 -25q13 -29 13 -73q1 -28 -4 -72q-1 -9 -3 -25q-5 -36 -6 -50q3 1 7 2q20 6 37.5 -4.5t23 -30t-4.5 -37.5t-30 -23q-45 -13 -98 -15q-36 -2 -93 1
q-21 1 -34.5 16.5t-12.5 36t16 34t36 12.5q32 -2 53 -2q1 18 7 73q2 15 3 24q2 18 3 33q-10 -7 -12 -7q-18 -10 -37.5 -3.5t-28.5 25.5zM82 464q37 0 110 -2q27 -1 40 -1q139 -3 221 7q20 3 36.5 -9.5t19 -33t-10 -36.5t-33.5 -19q-88 -11 -235 -8q-13 0 -40 1q-72 2 -108 2
q-20 0 -34.5 14.5t-14.5 35t14.5 35t34.5 14.5zM132 255q14 42 57.5 66t90.5 19q56 -6 83 -50q29 -46 10 -113q-6 -20 -21 -36q-11 -12 -27 -22q-11 -6 -24 -12q16 1 20 2q17 1 25 1q20 0 34.5 -14.5t14.5 -35t-14.5 -35t-34.5 -14.5h-5t-10 -1q-3 0 -9.5 -1t-13 -1.5
t-7.5 -0.5q-15 -2 -26 -3q-34 -2 -55 -2q-16 1 -28 4q-9 2 -17 6q-12 5 -20 15q-22 25 -19 65.5t29 61.5q18 13 56 28q2 0 9 3t8 3q26 10 36 16q2 1 4 3q4 13 3 23q0 5 -2 8q-1 3 -9 3q-15 2 -30 -6q-12 -6 -15 -13q-7 -19 -25.5 -28t-37.5 -2.5t-28 25t-2 38.5z" />
    <glyph glyph-name="threequarters" unicode="&#xbe;" 
d="M276 140q1 28 2 62q-23 -21 -37 -38q-8 -9 -13 -17q2 0 4 -1q17 -4 44 -6zM82 464q37 0 110 -2q27 -1 40 -1q139 -3 221 7q20 3 36.5 -9.5t19 -33t-10 -36.5t-33.5 -19q-88 -11 -235 -8q-13 0 -40 1q-72 2 -108 2q-20 0 -34.5 14.5t-14.5 35t14.5 35t34.5 14.5zM379 267
v-22q-1 -20 -2 -27q-1 -46 -2 -78q0 -19 1 -34q3 -8 3 -17q0 -6 -2 -11q1 -6 1 -10q2 -15 4 -25q1 -5 2 -8q0 -1 1 -1q10 -18 4.5 -38t-23.5 -30t-37.5 -4.5t-29.5 23.5q-12 20 -17 56q-44 2 -73 9t-48 20q-28 19 -35 50q-7 28 7 59q10 23 32 49q40 47 126 114
q16 13 36.5 10.5t33.5 -18.5q13 -17 10 -37q9 -14 8 -30zM141 810q69 25 144 12q36 -6 57 -19q34 -22 35 -59q0 -25 -18 -50q-10 -14 -27 -30q-5 -4 -10 -9q10 -6 17 -13q18 -15 23 -34q9 -35 -18 -60q-36 -32 -91 -49q-43 -14 -92 -17q-20 -1 -35.5 12.5t-16.5 34t12.5 36
t33.5 16.5q38 2 71 13q-11 6 -17 12q-9 8 -14 19q-10 24 3 47q9 14 26 30q6 5 13 12q2 1 5 3.5t5.5 5t3.5 2.5l1 1q-41 4 -78 -9q-19 -7 -37.5 1.5t-25.5 28t2 38t28 25.5z" />
    <glyph glyph-name="questiondown" unicode="&#xbf;" horiz-adv-x="565" 
d="M444 755q6 2 13 3q23 3 46 -7q44 -19 58 -56q5 -16 4 -42q-1 -20 -5 -34q-8 -27 -31 -47t-53 -26q-31 -6 -59 5q-33 14 -49 48q-24 53 9 106q25 40 67 50zM445 429q-1 -4 -2 -7q-3 -8 -5 -14q-10 -25 -17 -39q-5 -9 -11 -16q-11 -13 -25 -19q-18 -7 -38 -4q-12 2 -27 7
q-9 4 -23 10l-2 1q-2 0 -4.5 1.5t-5.5 3t-5.5 2.5t-4.5 2q-37 16 -60.5 18.5t-45.5 -9.5q-4 -2 -8 -6q-58 -41 -76 -88q-17 -44 8 -85q57 -94 144 -115q81 -19 186 21q19 8 37.5 -0.5t26 -27.5t-0.5 -37.5t-28 -26.5q-134 -52 -245 -25q-127 31 -204 160q-50 82 -17 170
q28 76 111 135q8 6 17 11q51 29 110 21q37 -5 85 -26l23 -10l4 -2q1 3 3 7q2 5 4 13l2 6q2 4 3 7q5 16 9 23q11 20 33 25l1 1h1h1h1h1h1h1h1h1l1 1h1h1l1 -1h1h1h1h1h1h2h1l1 -1h1h1h1q5 -2 9 -4q18 -10 24 -29.5t-3 -37.5q0 -1 -1 -2l-3 -9q-1 -2 -2 -5z" />
    <glyph glyph-name="quoteleft" unicode="&#x2018;" horiz-adv-x="167" 
d="M128 741q-5 -24 11 -63l8 -20q13 -29 18 -47q6 -20 -3.5 -38t-29.5 -24t-38 3.5t-24 29.5q-4 13 -14 38q-7 16 -9 21q-12 30 -16 53q-6 33 -1 64q3 20 20 32t37 8.5t32 -20.5t9 -37z" />
    <glyph glyph-name="quoteright" unicode="&#x2019;" horiz-adv-x="133" 
d="M133 754q1 -36 -2 -103v-2q-3 -47 -3 -70q0 -21 -14.5 -35.5t-35 -14.5t-35 14.5t-14.5 35.5q0 26 3 75v2q3 62 2 94q-1 21 12.5 36t34 16t36 -13t16.5 -35z" />
    <glyph glyph-name="quotedblleft" unicode="&#x201c;" horiz-adv-x="351" 
d="M110 732q23 -85 46 -137q8 -19 0.5 -38t-26 -27t-38 -0.5t-27.5 25.5q-25 59 -51 150q-5 20 5 38t29.5 23.5t37.5 -4.5t24 -30zM268 733q8 -28 41 -83l1 -1q26 -43 37 -67q8 -19 1 -38.5t-25.5 -27.5t-38 -1t-28 25.5t-31.5 56.5q0 1 -1 2q-19 32 -28 49q-16 31 -23 58
q-6 20 4 38t30 23.5t38 -5t23 -29.5z" />
    <glyph glyph-name="quotedblright" unicode="&#x201d;" horiz-adv-x="357" 
d="M170 689q-7 -27 -9 -59q-1 -22 -1 -65q0 -21 -14.5 -35.5t-35 -14.5t-35 14.5t-14.5 35.5q0 46 2 71q2 39 10 75q4 20 21.5 31t37.5 6.5t31 -22t7 -37.5zM357 703q-11 -73 -14 -142q-1 -21 -16 -35t-35.5 -13t-34.5 16.5t-13 35.5q4 74 15 152q3 20 19.5 32.5t36.5 9.5
t32.5 -19.5t9.5 -36.5z" />
    <glyph glyph-name="Euro" unicode="&#x20ac;" horiz-adv-x="649" 
d="M559 565q-15 22 -66 35q-40 10 -102 12q-46 2 -78 -9t-62 -38q81 -2 169 -12q21 -2 33.5 -18t10.5 -36t-18 -33t-36 -11q-123 13 -230 12q-22 -52 -18 -111q1 -23 7 -47q14 3 32 6q121 19 214 17q21 0 35 -15t13.5 -35.5t-15 -34.5t-35.5 -14q-84 2 -197 -16q-4 -1 -7 -1
q9 -14 19 -27q59 -72 134 -84q82 -12 155 57q15 14 35.5 13.5t34.5 -15.5t13.5 -35.5t-15.5 -34.5q-108 -102 -238 -82q-113 17 -196 119q-26 32 -46 70q-26 -4 -43 -7q-20 -4 -37 8t-20.5 32t8.5 37t32 20q12 2 26 5q-6 29 -8 58q-4 58 11 112q-19 0 -33.5 13t-15.5 33
q-2 20 11.5 35.5t33.5 17.5q25 2 50 3q11 16 23 30q55 65 113 92.5t138 24.5q73 -2 123 -15q39 -10 67 -25q37 -21 57 -51q12 -17 8 -37t-21.5 -31.5t-37.5 -7.5t-31 21z" />
    <glyph glyph-name="uni3000" unicode="&#x3000;" horiz-adv-x="1000" 
 />
    <glyph glyph-name="uniF8FE" unicode="&#xf8fe;" horiz-adv-x="300" 
 />
    </font>
</defs>
</svg>
